<svg xmlns="http://www.w3.org/2000/svg" viewBox="0 0 500 500"><g id="freepik--Floor--inject-33"><ellipse id="freepik--floor--inject-33" cx="250" cy="346.96" rx="244.16" ry="145.24" style="fill:#fafafa"></ellipse></g><g id="freepik--puzzle-pieces--inject-33"><g id="freepik--puzzle-pieces--inject-33"><path d="M449.69,103.28c1.25-2,2.45-4,3.66-5.93.17-.27.35-.53.5-.81.88-1.61.21-2.91-1.58-3.35a6,6,0,0,1-2.53-1.11,3.18,3.18,0,0,1,.4-4.71,3.13,3.13,0,0,1,4.54.46c2,2.52,3,2.48,4.7-.22.73-1.17,1.41-2.37,2.12-3.55.16-.26.36-.5.56-.79l5.33,3.31c-2.68,1.9-3.79,4.24-2.37,7.27a5.42,5.42,0,0,0,5.4,2.89c3-.35,4.3-2.39,4.73-5.32l6.93,4.29c-1.24,1.91-2.34,3.81-3.64,5.55-.93,1.25-2.32.95-3.17-.51a3.48,3.48,0,0,0-4.77-1.28,3.41,3.41,0,0,0-.86,5.1,7.42,7.42,0,0,0,2.27,1.19,8.64,8.64,0,0,1,1.87.86,1.52,1.52,0,0,1,.16,2c-1.38,2.31-2.8,4.59-4.27,7l-4.49-2.77c-.78-.48-1.55-1-2.36-1.44a2,2,0,0,0-3.2,1.51,8.42,8.42,0,0,1-.41,1.75,3.07,3.07,0,0,1-3.15,1.72,3.62,3.62,0,0,1-3-2.64,3.14,3.14,0,0,1,1.43-3.29c2.09-1.42,2.08-2.92,0-4.26Z" style="fill:#f0f0f0"></path><path d="M197.65,73.19,202,80c-1.92,1.17-3.71,2.36-5.6,3.39-1.15.63-2.15.08-2.55-1.2a11,11,0,0,1-.24-1.14,3.25,3.25,0,0,0-2.88-2.71A3.72,3.72,0,0,0,187,80.57a3.2,3.2,0,0,0,1,3.74c.3.25.65.43,1,.68a1.85,1.85,0,0,1,0,3.21c-2.2,1.48-4.47,2.86-6.81,4.36-1.2-1.88-2.36-3.69-3.51-5.51-.23-.36-.44-.73-.69-1.07-1.14-1.63-2.62-1.65-3.78,0-.15.2-.28.41-.43.61a3.15,3.15,0,0,1-3.7,1,3.68,3.68,0,0,1-2.1-3.63,3.12,3.12,0,0,1,2.67-2.64c.14,0,.28,0,.42-.06,2.14-.39,2.78-1.78,1.63-3.63-.8-1.29-1.63-2.57-2.44-3.86-.19-.3-.37-.61-.62-1,.53-.35,1.05-.7,1.57-1,1.59-1,3.18-2,4.76-3,1.87-1.22,1.86-2.89,0-4.11a3.12,3.12,0,0,1-1.14-4.42,3.35,3.35,0,0,1,3.32-1.62,3,3,0,0,1,2.69,2.22c.1.38.14.77.22,1.15.4,1.9,1.9,2.46,3.51,1.35,1.42-1,2.88-1.91,4.33-2.85a4.4,4.4,0,0,1,.58-.25l3.28,5.26c-3.17.51-5.16,2.1-5.25,5.36a5.52,5.52,0,0,0,3.66,5.14C193.43,76.74,195.33,76,197.65,73.19Z" style="fill:#f0f0f0"></path><path d="M305.43,86c3.24-.18,5.4-1.55,5.81-4.86a5.57,5.57,0,0,0-3.27-5.5c-2.17-1-4.29-.31-6.61,2.1-1.18-2.41-2.34-4.77-3.57-7.26,2-1,3.95-2,5.94-2.79,1.26-.52,2.31.31,2.45,1.69,0,.28,0,.56.06.85a3.26,3.26,0,0,0,2.68,3.13,3.71,3.71,0,0,0,3.88-2,3.23,3.23,0,0,0-1-3.92l-.4-.35c-1.33-1.22-1.21-2.6.37-3.43,2.3-1.19,4.63-2.3,7.07-3.5.93,1.87,1.84,3.71,2.74,5.54.24.47.46,1,.72,1.43,1,1.8,2.44,1.92,3.83.44a5.36,5.36,0,0,1,1.93-1.38,2.69,2.69,0,0,1,3.15.94,3.29,3.29,0,0,1,.62,3.67,3,3,0,0,1-2.8,1.8c-.21,0-.43,0-.64,0a2.08,2.08,0,0,0-1.84,3.19c.83,1.79,1.73,3.56,2.66,5.45l-5.92,2.93-.09,0c-3,1.43-3.17,2.38-.87,4.73a3.26,3.26,0,0,1-.11,4.79,3.4,3.4,0,0,1-4.91-.52,4.21,4.21,0,0,1-.5-2c-.1-2.12-1.64-3.1-3.53-2.15-1.39.71-2.78,1.41-4.15,2.16-.74.41-1.13.22-1.47-.52C307,89.09,306.22,87.58,305.43,86Z" style="fill:#f0f0f0"></path><path d="M396.32,25.82c-.07,2.52-.14,4.92-.19,7.33-.07,2.62,1.07,3.41,3.53,2.44a3,3,0,0,1,3.45.6,3.27,3.27,0,0,1,.72,3.73,2.74,2.74,0,0,1-2.65,2,5.24,5.24,0,0,1-2-.51c-1.86-.81-3.21-.08-3.32,1.94s-.12,3.95-.18,6l-6.24-.19c1.23-2.88,1.23-5.44-1.46-7.37a5.55,5.55,0,0,0-6.13,0c-2,1.35-2.4,2.87-1.63,7.14l-8.1-.26c.08-1.88.12-3.71.25-5.54a3.81,3.81,0,0,1,.5-1.94c.67-.92,1.46-.88,3-.16a3.22,3.22,0,0,0,4.51-1.67,3.5,3.5,0,0,0-.67-3.86,3.22,3.22,0,0,0-3.72-.69c-2.29.9-3.4.11-3.31-2.34s.15-4.8.23-7.31c2.57.08,5.08.17,7.59.23,2.16,0,3.07-1.23,2.31-3.23,0-.07-.05-.14-.07-.2a3.16,3.16,0,0,1,1-4,3.63,3.63,0,0,1,4.18.19,3.17,3.17,0,0,1,.62,4.06c-1,2-.13,3.38,2.07,3.46C392.44,25.72,394.35,25.77,396.32,25.82Z" style="fill:#f0f0f0"></path><path d="M49.41,33.7c1.17,2.07,2.3,4.07,3.44,6.06.15.28.33.55.47.83.81,1.65.1,2.92-1.71,3.29a5.87,5.87,0,0,0-2.57,1,3.17,3.17,0,0,0,.22,4.71,3.12,3.12,0,0,0,4.55-.28c2.09-2.45,3.12-2.37,4.7.39.68,1.2,1.31,2.42,2,3.63.15.27.34.52.53.81l5.45-3.1c-2.6-2-3.63-4.39-2.09-7.36A5.44,5.44,0,0,1,69.88,41c3,.47,4.21,2.56,4.52,5.5l7.09-4c-1.16-1.95-2.19-3.89-3.42-5.67-.89-1.29-2.29-1-3.19.38a3.48,3.48,0,0,1-4.81,1.1,3.4,3.4,0,0,1-.67-5.12,7.29,7.29,0,0,1,2.31-1.11,8.08,8.08,0,0,0,1.9-.79,1.52,1.52,0,0,0,.24-2.05c-1.29-2.35-2.63-4.68-4-7.13l-4.59,2.59c-.8.46-1.58.94-2.41,1.35A2,2,0,0,1,59.7,24.4a7.85,7.85,0,0,0-.35-1.76,3,3,0,0,0-3.08-1.84,3.59,3.59,0,0,0-3.11,2.52,3.12,3.12,0,0,0,1.3,3.34c2,1.5,2,3-.19,4.26C52.71,31.83,51.14,32.72,49.41,33.7Z" style="fill:#f0f0f0"></path><path d="M42,123.21c-2.17.4-2.78,1.91-1.55,3.73a3.17,3.17,0,0,1,0,4.11,3.64,3.64,0,0,1-4.11.8,3.18,3.18,0,0,1-1.57-3.79,1.6,1.6,0,0,0,.05-.21c.46-2.09-.63-3.23-2.76-2.86-2.47.43-4.94.89-7.48,1.35-.44-2.47-.86-4.84-1.3-7.2s.53-3.36,2.94-2.8a3.22,3.22,0,0,0,3.57-1.23,3.48,3.48,0,0,0,.09-3.92,3.2,3.2,0,0,0-4.69-1c-1.39.93-2.18,1.09-3,.28a3.86,3.86,0,0,1-.78-1.85c-.4-1.78-.71-3.59-1.06-5.44l8-1.44c-.14,4.33.44,5.78,2.65,6.81a5.53,5.53,0,0,0,6.06-.9c2.38-2.3,2-4.84.37-7.5L43.57,99c.36,2,.67,4,1.06,5.93s1.85,2.5,3.57,1.42a5.27,5.27,0,0,1,1.94-.79,2.71,2.71,0,0,1,2.9,1.54,3.26,3.26,0,0,1-.16,3.8,3,3,0,0,1-3.33,1.1c-2.57-.6-3.58.35-3.13,2.94.41,2.36.83,4.73,1.26,7.21C45.74,122.54,43.87,122.86,42,123.21Z" style="fill:#f0f0f0"></path></g></g><g id="freepik--Plants--inject-33"><g id="freepik--plants--inject-33"><path d="M55.71,303.11l7.69-4.44s3.33-21.69.36-38.42c-4.18-23.52-20.41-31.35-26.2-28.9s-7,9.48,3.78,22.91C47.71,262.18,55.49,281.21,55.71,303.11Z" style="fill:#BA68C8"></path><path d="M55.71,303.11l7.69-4.44s3.33-21.69.36-38.42c-4.18-23.52-20.41-31.35-26.2-28.9s-7,9.48,3.78,22.91C47.71,262.18,55.49,281.21,55.71,303.11Z" style="opacity:0.15"></path><path d="M58.76,291.51h-.08a.54.54,0,0,1-.46-.59c2.63-22.15-6.72-46.18-16.89-55.74a.52.52,0,0,1,0-.74.53.53,0,0,1,.74,0c10.36,9.74,19.88,34.16,17.22,56.64A.52.52,0,0,1,58.76,291.51Z" style="fill:#fff"></path><path d="M37.22,313.78c-1.16.69-4.53-1.81-5.46-2.41A11.12,11.12,0,0,1,28,307.19a10.38,10.38,0,0,1-1-6.25,25.65,25.65,0,0,1,.73-3.35l.87-3.25a8.35,8.35,0,0,0,.41-3.28c-.33-2.2-2.32-3.72-4.13-5-2-1.44-4.1-3.35-4.14-6a9.41,9.41,0,0,1,2.24-5.62c2-2.61,4-4.66,3.44-8.21A28.7,28.7,0,0,0,24.15,260a10,10,0,0,1-.77-2.68,5.76,5.76,0,0,1,6.1-6.34,10.55,10.55,0,0,1,4.29,1.41c4.12,2.19,6.63,7.9,11.41,8.5,1.56.19,3.14.12,4.7.33a6.9,6.9,0,0,1,4.22,1.86c3.64,3.91-.58,9,.93,13.32,1.09,3.07,4.11,4.19,5.86,6.95a6.62,6.62,0,0,1,.86,4,19.28,19.28,0,0,1-1.57,6.87c-.91,2.23-3.9,8.56-3.9,8.56Z" style="fill:#BA68C8"></path><path d="M37.22,313.78c-1.16.69-4.53-1.81-5.46-2.41A11.12,11.12,0,0,1,28,307.19a10.38,10.38,0,0,1-1-6.25,25.65,25.65,0,0,1,.73-3.35l.87-3.25a8.35,8.35,0,0,0,.41-3.28c-.33-2.2-2.32-3.72-4.13-5-2-1.44-4.1-3.35-4.14-6a9.41,9.41,0,0,1,2.24-5.62c2-2.61,4-4.66,3.44-8.21A28.7,28.7,0,0,0,24.15,260a10,10,0,0,1-.77-2.68,5.76,5.76,0,0,1,6.1-6.34,10.55,10.55,0,0,1,4.29,1.41c4.12,2.19,6.63,7.9,11.41,8.5,1.56.19,3.14.12,4.7.33a6.9,6.9,0,0,1,4.22,1.86c3.64,3.91-.58,9,.93,13.32,1.09,3.07,4.11,4.19,5.86,6.95a6.62,6.62,0,0,1,.86,4,19.28,19.28,0,0,1-1.57,6.87c-.91,2.23-3.9,8.56-3.9,8.56Z" style="fill:#fff;opacity:0.2"></path><path d="M29.18,278.21a74,74,0,0,1,14.52,1.93c-3.57-11.13-8.77-20.35-13-24.14a.51.51,0,0,1,0-.74.52.52,0,0,1,.74,0c4.4,4,9.85,13.69,13.49,25.36A.49.49,0,0,1,45,281a82.3,82.3,0,0,1,3.87,25.46.54.54,0,0,1-.52.52h0a.54.54,0,0,1-.53-.54,81.2,81.2,0,0,0-3.78-25.06,71.93,71.93,0,0,0-14.91-2.07.53.53,0,0,1-.52-.54A.51.51,0,0,1,29.18,278.21Z" style="fill:#fff"></path></g><g id="freepik--plants--inject-33"><path d="M454.28,305.39c-1.67-11.16-2.86-21.51.66-38.17,2.95-14,13.35-29.1,21.69-29.65,7.77-.51,10.75,8.71,5,18.06s-18.67,27.5-18,39.22l-1.16,13.58Z" style="fill:#BA68C8"></path><g style="opacity:0.15"><path d="M454.28,305.39c-1.67-11.16-2.86-21.51.66-38.17,2.95-14,13.35-29.1,21.69-29.65,7.77-.51,10.75,8.71,5,18.06s-18.67,27.5-18,39.22l-1.16,13.58Z"></path></g><path d="M456.92,300.87a.49.49,0,0,0,.32-.51c-2.1-23.64,11.56-48.65,21.22-55.8a.51.51,0,0,0,.11-.7.5.5,0,0,0-.7-.1c-9.85,7.29-23.75,32.69-21.62,56.69a.51.51,0,0,0,.54.45A.5.5,0,0,0,456.92,300.87Z" style="fill:#fff"></path><path d="M465.46,309.65c-.06-4,2.59-11.4,8.33-18.6,6.35-8,15.74-13.57,16.77-18.58,1.25-6-4.25-8.41-12.41-5.47-9.81,3.53-19.45,16.61-18.12,40.48Z" style="fill:#BA68C8"></path><g style="opacity:0.2"><path d="M465.46,309.65c-.06-4,2.59-11.4,8.33-18.6,6.35-8,15.74-13.57,16.77-18.58,1.25-6-4.25-8.41-12.41-5.47-9.81,3.53-19.45,16.61-18.12,40.48Z" style="fill:#fff"></path></g><path d="M462.7,306.28a.5.5,0,0,0,.32-.44c1.06-21.16,13.61-32.27,20.09-35.18a.51.51,0,0,0,.25-.66.48.48,0,0,0-.66-.25c-7.17,3.22-19.59,14.44-20.68,36a.5.5,0,0,0,.48.52A.44.44,0,0,0,462.7,306.28Z" style="fill:#fff"></path></g></g><g id="freepik--Ribbon--inject-33"><g id="freepik--ribbon--inject-33"><path d="M266.77,28.62c-7.07-7.06-17.24-4.69-17.24-4.69s-16.67,6.41-21,19.78c-.13.38-.26.83-.36,1.19-3.09,11.72,7.88,15,7.88,15s6-13.75,19.05-12.39,15.65,15.63,15.65,15.63,10.49,6.08,9.22-4.21C277.59,39.75,269.49,32.35,266.77,28.62Z" style="fill:#BA68C8"></path><path d="M266.77,28.62c-7.07-7.06-17.24-4.69-17.24-4.69s-16.67,6.41-21,19.78c-.13.38-.26.83-.36,1.19-3.09,11.72,7.88,15,7.88,15s6-13.75,19.05-12.39,15.65,15.63,15.65,15.63,10.49,6.08,9.22-4.21C277.59,39.75,269.49,32.35,266.77,28.62Z" style="opacity:0.35000000000000003"></path><path d="M266.77,28.62h0c-.28-.28-.57-.54-.86-.79l-.14-.12c-.28-.24-.56-.47-.85-.68,3.15,4.48,4.44,20,.79,20.95a23.42,23.42,0,0,1-6.88.33c8,2.73,10.85,10.78,11.65,13.72v0c0,.1.05.19.07.28v.05c0,.08,0,.16.06.22v0c0,.06,0,.12,0,.17v0a.5.5,0,0,1,0,.12h0l0,.12s10.49,6.08,9.22-4.21C277.59,39.75,269.49,32.35,266.77,28.62Z" style="opacity:0.1"></path><path d="M247.8,48.37a5.73,5.73,0,0,1-3.5-1.87c-2.84-3.61-1.11-15.1,2.48-20.17l-.76-.59a3.46,3.46,0,0,1-1.07.41c-5.27,2.9-13.56,8.7-16.43,17.56-.13.38-.26.83-.36,1.19-3.09,11.71,7.88,15,7.88,15h0l0-.06h0v0a2.9,2.9,0,0,1,.13-.27h0l.21-.43h0c.14-.27.32-.59.53-1A.41.41,0,0,0,237,58l.3-.49.07-.1c.38-.62.85-1.32,1.4-2l.06-.07c.18-.24.38-.48.58-.73h0a23.68,23.68,0,0,1,2.2-2.34h0a19,19,0,0,1,2.78-2.16h0a17.38,17.38,0,0,1,3.37-1.68Z" style="opacity:0.1"></path><path d="M236.32,95.85c.55-.47,1.49-.9.44-1.5-.35-.2-.81-.23-1.17-.42a3.55,3.55,0,0,1-1.66-4c.39-1.7,1.88-3,3.14-4.15s3-2,4.7-1.44A4.06,4.06,0,0,1,244.39,88c.12,1.12-.12,2.23-.08,3.34a4.4,4.4,0,0,0,.07.73c0-.1.15-.15.37-.12a10.68,10.68,0,0,1,1.5-.54,20.66,20.66,0,0,0,4.63-2.73,128.51,128.51,0,0,1-7-19.83A26,26,0,0,1,237,70.57a1,1,0,0,1-1.08-1.09c.22-2.2,0-6-3.25-4.56-1.1.5-2.18,1.26-2.11,2.61s1.07,2.3,1.89,3.19c.24.25.33.8,0,1a43.83,43.83,0,0,1-6.2,2.82A95,95,0,0,0,230,94.13c.5,1.6,1.09,3.27,1.7,5,.69-.38,1.38-.78,2-1.23A28,28,0,0,0,236.32,95.85Zm40.56,51.45c1.5.88,2.16,2.89,4,3.25A4.15,4.15,0,0,0,285,144c-.9-1.25-2.49-.33-3.77-.64a2.28,2.28,0,0,1-1.61-3,21.58,21.58,0,0,1,3.26-6.21c.91-1.23,1.78-2.58,2.79-3.78A117.09,117.09,0,0,1,262,107.76a95.27,95.27,0,0,1-10.35-17.37,19.61,19.61,0,0,1-3.78,2.2c-1.2.54-3.38,1.74-4.58.62-1.36-1.28-.36-3.88-.56-5.48-.15-1.16-.7-2.13-2-2a5.51,5.51,0,0,0-2.87,1.74c-1.07,1-3.5,3.43-1.94,5,.6.6,1.71.53,2.38,1.15a1.83,1.83,0,0,1,.63,1.92c-.24.64-1,1.13-1.51,1.56a28.69,28.69,0,0,1-2.64,2,24.59,24.59,0,0,1-2.48,1.48,164,164,0,0,0,34,53.32c2.2-2.12,4.4-4.23,6.68-6.25A3.16,3.16,0,0,1,276.88,147.3ZM229,66.35c.31-1.68,2.13-2.79,3.68-3.19a3.8,3.8,0,0,1,4.15,1.62,6.25,6.25,0,0,1,.89,4,36.12,36.12,0,0,0,5.73-1.68c-2.13-8.52-3.13-16.47-2.85-22.6,0-.42,0-.82.07-1.23l-1.72.08c-.63,0-1.29,0-1.92.11-.17,0-.58.05-.69.22s.13.78.23,1.05A3.46,3.46,0,0,1,235,49c-1.26.65-3.38.49-4-1a2.17,2.17,0,0,1,.14-1.69,6.37,6.37,0,0,0,.79-1.66c-1.28,0-2.53.13-3.79.26-2.23,7.76-2.85,17.94-2.07,28.08,1.55-.72,3.1-1.42,4.62-2.22C229.62,69.53,228.65,68.05,229,66.35Zm3.66-22.45c.63,1.11-.08,2.12-.48,3.16-.17.42-.28.68.17.94a2,2,0,0,0,1.35.11,2.43,2.43,0,0,0,1.88-1.82c.33-1.37-1.51-3.51.73-4a20,20,0,0,1,2.9-.17l1.57-.08c1.42-14.09,8.79-18.13,8.79-18.13s-9,1.14-17.23,12a26.05,26.05,0,0,0-3.78,7.77c1.21-.12,2.43-.15,3.59-.17A.61.61,0,0,1,232.62,43.9ZM358.89,183.51s24.13-4,42.5-17.95c-16.83,1.56-36.77-.95-56.62-6.71a95,95,0,0,1-4,12.66c-.4,1-1.93.38-2-.51-.24-2.61-2.89-3.79-5.2-3a5.68,5.68,0,0,0-3.6,4.05,5.44,5.44,0,0,0,6.43,6.69c.68-.16,1.76.35,1.46,1.2l-5.94,16.84a226.74,226.74,0,0,0,63.55,16.81C372.28,203.16,358.89,183.51,358.89,183.51Zm-30.72-12.85a7.09,7.09,0,0,1,6.56-4.69,6.06,6.06,0,0,1,4.95,2.42c1.21-3.33,2.22-6.71,3.15-10.12A205.12,205.12,0,0,1,313.55,147c-.31.77-.69,1.53-1,2.27-.74,1.65-1.5,3.28-2.26,4.92s-1.76,5-4.28,4.16c-1.91-.6-1.75-2.7-2.61-4.13a4.51,4.51,0,0,0-5.14-1.68c-4.29,1.4-7.3,9.68-1.22,10.66,2.07.33,4.66-.76,6.51.51s1,3.49,0,5.08l-6,10.22A240.47,240.47,0,0,0,330,196q2.7-7.69,5.41-15.38C330.45,180.48,326.28,175.76,328.17,170.66ZM300.48,170a17.09,17.09,0,0,0,2.1-3.84c.49-1.88-1.69-1.34-2.84-1.26a11.28,11.28,0,0,1-3.28-.18,6.17,6.17,0,0,1-4.59-3.57c-1.44-3.83,1.48-8.8,5.12-10.19a6.74,6.74,0,0,1,8.75,4c.09.29.27,1.42.54,1.55.58.26,1-.77,1.22-1.14.61-1.17,1.16-2.36,1.75-3.53.67-1.36,1.35-2.7,2-4,.27-.53.53-1.07.81-1.59a173.32,173.32,0,0,1-25-14.85c-.89,1.54-2.09,3-3.08,4.38a41.77,41.77,0,0,0-2.16,3.94,3.25,3.25,0,0,0-.52,1.8c.07.42.1.34.53.33.16,0,.31,0,.47,0a4.21,4.21,0,0,1,3.73,1,5.48,5.48,0,0,1,1.48,3.71c.09,3.36-1.62,5.39-5.13,5.75a5.58,5.58,0,0,1-4.26-1.28c-.67-.59-1.13-1.38-1.79-2-1.16-1.07-2,.12-2.88.93l-5.78,5.48c1.47,1.5,3,3,4.52,4.44a167.08,167.08,0,0,0,23.66,18l2.16-3.68Z" style="fill:#BA68C8"></path><path d="M236.32,95.85c.55-.47,1.49-.9.44-1.5-.35-.2-.81-.23-1.17-.42a3.55,3.55,0,0,1-1.66-4c.39-1.7,1.88-3,3.14-4.15s3-2,4.7-1.44A4.06,4.06,0,0,1,244.39,88c.12,1.12-.12,2.23-.08,3.34a4.4,4.4,0,0,0,.07.73c0-.1.15-.15.37-.12a10.68,10.68,0,0,1,1.5-.54,20.66,20.66,0,0,0,4.63-2.73,128.51,128.51,0,0,1-7-19.83A26,26,0,0,1,237,70.57a1,1,0,0,1-1.08-1.09c.22-2.2,0-6-3.25-4.56-1.1.5-2.18,1.26-2.11,2.61s1.07,2.3,1.89,3.19c.24.25.33.8,0,1a43.83,43.83,0,0,1-6.2,2.82A95,95,0,0,0,230,94.13c.5,1.6,1.09,3.27,1.7,5,.69-.38,1.38-.78,2-1.23A28,28,0,0,0,236.32,95.85Zm40.56,51.45c1.5.88,2.16,2.89,4,3.25A4.15,4.15,0,0,0,285,144c-.9-1.25-2.49-.33-3.77-.64a2.28,2.28,0,0,1-1.61-3,21.58,21.58,0,0,1,3.26-6.21c.91-1.23,1.78-2.58,2.79-3.78A117.09,117.09,0,0,1,262,107.76a95.27,95.27,0,0,1-10.35-17.37,19.61,19.61,0,0,1-3.78,2.2c-1.2.54-3.38,1.74-4.58.62-1.36-1.28-.36-3.88-.56-5.48-.15-1.16-.7-2.13-2-2a5.51,5.51,0,0,0-2.87,1.74c-1.07,1-3.5,3.43-1.94,5,.6.6,1.71.53,2.38,1.15a1.83,1.83,0,0,1,.63,1.92c-.24.64-1,1.13-1.51,1.56a28.69,28.69,0,0,1-2.64,2,24.59,24.59,0,0,1-2.48,1.48,164,164,0,0,0,34,53.32c2.2-2.12,4.4-4.23,6.68-6.25A3.16,3.16,0,0,1,276.88,147.3ZM229,66.35c.31-1.68,2.13-2.79,3.68-3.19a3.8,3.8,0,0,1,4.15,1.62,6.25,6.25,0,0,1,.89,4,36.12,36.12,0,0,0,5.73-1.68c-2.13-8.52-3.13-16.47-2.85-22.6,0-.42,0-.82.07-1.23l-1.72.08c-.63,0-1.29,0-1.92.11-.17,0-.58.05-.69.22s.13.78.23,1.05A3.46,3.46,0,0,1,235,49c-1.26.65-3.38.49-4-1a2.17,2.17,0,0,1,.14-1.69,6.37,6.37,0,0,0,.79-1.66c-1.28,0-2.53.13-3.79.26-2.23,7.76-2.85,17.94-2.07,28.08,1.55-.72,3.1-1.42,4.62-2.22C229.62,69.53,228.65,68.05,229,66.35Zm3.66-22.45c.63,1.11-.08,2.12-.48,3.16-.17.42-.28.68.17.94a2,2,0,0,0,1.35.11,2.43,2.43,0,0,0,1.88-1.82c.33-1.37-1.51-3.51.73-4a20,20,0,0,1,2.9-.17l1.57-.08c1.42-14.09,8.79-18.13,8.79-18.13s-9,1.14-17.23,12a26.05,26.05,0,0,0-3.78,7.77c1.21-.12,2.43-.15,3.59-.17A.61.61,0,0,1,232.62,43.9ZM358.89,183.51s24.13-4,42.5-17.95c-16.83,1.56-36.77-.95-56.62-6.71a95,95,0,0,1-4,12.66c-.4,1-1.93.38-2-.51-.24-2.61-2.89-3.79-5.2-3a5.68,5.68,0,0,0-3.6,4.05,5.44,5.44,0,0,0,6.43,6.69c.68-.16,1.76.35,1.46,1.2l-5.94,16.84a226.74,226.74,0,0,0,63.55,16.81C372.28,203.16,358.89,183.51,358.89,183.51Zm-30.72-12.85a7.09,7.09,0,0,1,6.56-4.69,6.06,6.06,0,0,1,4.95,2.42c1.21-3.33,2.22-6.71,3.15-10.12A205.12,205.12,0,0,1,313.55,147c-.31.77-.69,1.53-1,2.27-.74,1.65-1.5,3.28-2.26,4.92s-1.76,5-4.28,4.16c-1.91-.6-1.75-2.7-2.61-4.13a4.51,4.51,0,0,0-5.14-1.68c-4.29,1.4-7.3,9.68-1.22,10.66,2.07.33,4.66-.76,6.51.51s1,3.49,0,5.08l-6,10.22A240.47,240.47,0,0,0,330,196q2.7-7.69,5.41-15.38C330.45,180.48,326.28,175.76,328.17,170.66ZM300.48,170a17.09,17.09,0,0,0,2.1-3.84c.49-1.88-1.69-1.34-2.84-1.26a11.28,11.28,0,0,1-3.28-.18,6.17,6.17,0,0,1-4.59-3.57c-1.44-3.83,1.48-8.8,5.12-10.19a6.74,6.74,0,0,1,8.75,4c.09.29.27,1.42.54,1.55.58.26,1-.77,1.22-1.14.61-1.17,1.16-2.36,1.75-3.53.67-1.36,1.35-2.7,2-4,.27-.53.53-1.07.81-1.59a173.32,173.32,0,0,1-25-14.85c-.89,1.54-2.09,3-3.08,4.38a41.77,41.77,0,0,0-2.16,3.94,3.25,3.25,0,0,0-.52,1.8c.07.42.1.34.53.33.16,0,.31,0,.47,0a4.21,4.21,0,0,1,3.73,1,5.48,5.48,0,0,1,1.48,3.71c.09,3.36-1.62,5.39-5.13,5.75a5.58,5.58,0,0,1-4.26-1.28c-.67-.59-1.13-1.38-1.79-2-1.16-1.07-2,.12-2.88.93l-5.78,5.48c1.47,1.5,3,3,4.52,4.44a167.08,167.08,0,0,0,23.66,18l2.16-3.68Z" style="opacity:0.2"></path><path d="M259.17,146a160.15,160.15,0,0,0,12.7-27.22,101.42,101.42,0,0,1-9.87-11,91.62,91.62,0,0,1-8.7-14c-7.35,9.29-12.5,15.1-16.1,18.27A167.38,167.38,0,0,0,259.17,146Z" style="opacity:0.1"></path><path d="M216.4,162.85c-.78-.82-2.15-2.79-3.48-2.76-.56,3.27-3.9,4.94-7.07,4.63-2.84-.27-6.08-2-6.94-4.87a4.46,4.46,0,0,1,3.35-5.74c1.06-.28,2.61-.26,3.45-1.05,1.53-1.44-1-3.67-1.94-4.69L198,141.89a163.5,163.5,0,0,1-33.58,12.7c.56,1.81,1.24,3.74,1.74,5.23s1.33,3.25,1.9,4.55a15.54,15.54,0,0,0,2,3.24,10.33,10.33,0,0,0,1.71,1.52c.48.39,1,.77,1.64.32a2.72,2.72,0,0,0,.49-.71,7.81,7.81,0,0,1,5.05-3.74,6.84,6.84,0,0,1,5.87,1.63c3.18,3,3,8.79-1.39,10.4a24,24,0,0,1-3.22.78,6.75,6.75,0,0,0-1.68.47c-.71.39-.44,1.09-.3,1.77a32.87,32.87,0,0,0,2.39,7.11,35.6,35.6,0,0,0,4.26,6.93A243.74,243.74,0,0,0,224.08,171l-3.81-4Zm-40.34,16.81c-.15-.91-.29-1.9.51-2.54a6.27,6.27,0,0,1,2.49-.9c2.21-.51,5.1-.71,5.73-3.38.58-2.43-.78-5.5-3.32-6.11s-4.61,1.18-6,3.21-3.34,1.82-5.13.34c-4-3.33-5.76-10.3-7.21-15.38-14.62,3.63-30.71,5.55-51,6.62,19.29,14.16,44.19,20.81,44.19,20.81S146.74,196.9,124,213a227.05,227.05,0,0,0,59.13-18.15,39.47,39.47,0,0,1-4.75-8A30.32,30.32,0,0,1,176.06,179.66Zm61.24-40.39a.72.72,0,0,1,.46-1.06c1.77-.29,3.77-.58,5.06-2s1-3.4-.21-4.87a4.07,4.07,0,0,0-4.56-1.44c-1.79.68-2,2.36-2.77,3.85-1.7,3.21-5.31,1.62-7.48-.1a46.12,46.12,0,0,1-6.32-5.71q-5.29,3.78-11.4,7.35c-3.72,2.15-7.34,4.12-10.91,5.95q3.3,3.47,6.58,6.94c1.2,1.29,2.81,2.95,2.24,4.88a3.28,3.28,0,0,1-2.36,2.1c-1.2.39-2.69.36-3.76,1.1-1.53,1.07-1.33,3.34-.26,4.64,2.43,2.93,9,2.95,9.32-1.71a.77.77,0,0,1,.54-.69c1.53-.64,3,.05,4.24,1.06a56.8,56.8,0,0,1,4.38,4.53l5.47,5.76a200.73,200.73,0,0,0,15.56-12.7c2.37-2.15,4.58-4.38,6.68-6.66A24.24,24.24,0,0,1,237.3,139.27Zm32-86.33.66.34a18.49,18.49,0,0,0,2.17,1.11c.54.19.87,0,.92-.6s-.42-1.11-.67-1.56c-.5-.87-.83-2.07.06-2.82a2.38,2.38,0,0,1,2.73,0A5.69,5.69,0,0,1,278,53a2.61,2.61,0,0,1-.2,1.7c-.18.32-.47.61-.66.91-.42.66.59,1.47,1,1.84L280,58.91c-1.14-16.16-8.48-25.58-13.19-30.29C269.24,32.72,270.66,41.65,269.3,52.94Zm.89,41.57A4.86,4.86,0,0,1,265,96a5,5,0,0,1-3.65-4.32,5,5,0,0,1,.57-2.75,5.35,5.35,0,0,1,1.54-1.63,33.36,33.36,0,0,0-4.38-2.42,117.55,117.55,0,0,1-15.19,22.7c1,.74,2,1.45,3.07,2.11.87.55,1.75,1.06,2.66,1.54.7.38,2.14,1.31,2.92.65s.17-1.81.08-2.51a3.32,3.32,0,0,1,.21-1.87,3.63,3.63,0,0,1,2.88-1.72c2.71-.36,5.9,1,7,3.6a4.74,4.74,0,0,1,0,3.92c-.57,1.17-3.41,2.64-2.59,4a7.62,7.62,0,0,0,2.07,1.75c.73.54,1.5,1,2.28,1.52s1.58.91,2.39,1.31A138.77,138.77,0,0,0,276.69,93a27.1,27.1,0,0,0-5.51-2.57A5,5,0,0,1,270.19,94.51Zm9.87-34.08-.3-.27-2-1.69a10,10,0,0,1-1.53-1.38,1.57,1.57,0,0,1-.15-1.92c.32-.44,1-.88,1-1.45a3.12,3.12,0,0,0-.57-1.86c-.51-.8-2.68-2.81-3.46-1.24-.35.71.35,1.51.65,2.09.44.84.67,2.09-.29,2.69a1.44,1.44,0,0,1-1.46,0c-.75-.35-1.47-.78-2.2-1.17l-.63-.33a83.76,83.76,0,0,1-2.32,11.34l1,.38a10.13,10.13,0,0,1,3.08,1.72c.68.64,1.2,1.56.52,2.39-.35.43-.83.68-.87,1.31a1.46,1.46,0,0,0,1.33,1.45,1.3,1.3,0,0,0,1.3-.8c.22-.45.11-1,.26-1.41.31-.93,1.29-.79,2-.49a16.84,16.84,0,0,1,3.2,1.87l1.09.78A102,102,0,0,0,280.06,60.43Zm-3.29,11.16a8.22,8.22,0,0,0-1.52-.81c-1-.3-.73.5-.88,1.1a2.59,2.59,0,0,1-.65,1.26,2.28,2.28,0,0,1-2.59.25,3.15,3.15,0,0,1-1.81-2.2,2.24,2.24,0,0,1,1.09-2.31c.6-.48.69-.37-.36-1-.23-.14-.47-.27-.71-.4-.61-.32-1.24-.61-1.87-.89l-.89-.37a92.24,92.24,0,0,1-3.67,10.36c-1,2.25-2,4.6-3.23,7a27.47,27.47,0,0,1,5.71,3.16.77.77,0,0,1,.14,1.14c-.46.49-1.1.77-1.53,1.31a3.64,3.64,0,0,0-.78,2.07,3,3,0,0,0,1.79,3c3.05,1.19,5.37-2.35,3.95-5-.36-.65.43-1.08,1-.93a30.22,30.22,0,0,1,7.09,3,146.76,146.76,0,0,0,2.68-18c-.32-.24-.65-.48-1-.68C278.09,72.36,277.43,72,276.77,71.59Zm-17.95,46.56a2.56,2.56,0,0,1,0-3.41c1.15-1.48,2.91-2.19,2.46-4.41-.38-1.91-2.27-2.94-4.09-3.06a3.4,3.4,0,0,0-2.31.52c-.76.58-.62,1.45-.48,2.29.21,1.22.31,2.67-1,3.29s-2.67,0-3.77-.56a31.9,31.9,0,0,1-6.48-4.43A124.44,124.44,0,0,1,222.88,127c.83.79,1.66,1.59,2.51,2.37a25.86,25.86,0,0,0,5.14,4.14c1,.52,2,.71,2.74-.33a20.34,20.34,0,0,0,1.07-2.38,5.17,5.17,0,0,1,3.92-2.69,6.93,6.93,0,0,1,7.32,5.3c.9,3.91-2.89,5.61-6.05,6.29a22.42,22.42,0,0,0,9.43,9.56,114.41,114.41,0,0,0,17.28-26,30.72,30.72,0,0,1-2.88-1.56A19.79,19.79,0,0,1,258.82,118.15Z" style="fill:#BA68C8"></path></g></g><g id="freepik--Shadow--inject-33"><path id="freepik--shadow--inject-33" d="M229.1,484.28l-212-122.52c-4.9-2.83-4.9-7.42,0-10.25l232.06-134c4.9-2.83,12.85-2.83,17.75,0l212,122.52c4.9,2.84,4.9,7.42,0,10.25l-232.06,134C242,487.11,234,487.11,229.1,484.28Z" style="fill:#e0e0e0"></path></g><g id="freepik--Puzzle--inject-33"><g id="freepik--puzzle--inject-33"><path d="M471.13,308.34V338.7c0,3.17-2.78,6.52-7.31,9.13L364,405.59V375l100.25-57.76C468.65,314.69,471,311.45,471.13,308.34Z" style="fill:#BA68C8"></path><path d="M471.13,308.34V338.7c0,3.17-2.78,6.52-7.31,9.13L364,405.59V375l100.25-57.76C468.65,314.69,471,311.45,471.13,308.34Z" style="fill:#fff;opacity:0.5"></path><path d="M471.13,308.12v.22c-.14,3.11-2.48,6.35-6.88,8.9L364,375v30.59l-23-13.16-.2-.13-.08,0,0,0-3.26-1.87h0l-13.16-7.28a.51.51,0,0,0-.15-.07.51.51,0,0,0-.17-.08c-.29-.14-.57-.23-.84-.37l-1.46-.6-.88-.32-.23-.08a34,34,0,0,0-4.62-1.38l-.28-.08a14.69,14.69,0,0,0-1.47-.29c-.23-.05-.47-.08-.69-.11l-.22,0-1.12-.17c-.32,0-.66-.06-1-.07l-.23,0h-.09a23.8,23.8,0,0,0-2.52-.1l-1,0h-.47l-1.2.09h0l-.73.08c-.25,0-.49.05-.74.09l-.63.09-.61.1-1.48.3h0a33.28,33.28,0,0,0-3.9,1.11h0c-.49.17-1,.37-1.55.58l-.26.09-.35.14a.59.59,0,0,0-.14.06,3,3,0,0,1-.36.14l-2,.92-.66.33h0c-.84.44-1.7.9-2.56,1.38h0l-.08.05c-.7.44-1.45.87-2.15,1.31l-.21.13-.2.14-.17.11c-.44.3-.9.6-1.31.89h0c-5.4,3.61-7.71,8.4-13,12.07-.42.28-.85.57-1.31.86l-.06,0-.06.05a2.8,2.8,0,0,1-.32.2,7.67,7.67,0,0,1-.71.46c-5.49,3.27-17.43,4.09-20.27-1.89a3,3,0,0,1-.14-.46,5.66,5.66,0,0,1-.17-1.43V366.83h0a5.17,5.17,0,0,1,0-.54c.19-2.3,2.8-4.76,5.62-6l.08-.05.07,0c4.86-2.59,8.77-3.42,13.55-4.93.34-.09.66-.2,1-.3,1-.31,2-.65,3.07-1.06l1.05-.41-18.43-10.88V312.05c7.42-4.27,19.05-11,26.35-15.21s12.67-6.56,16.09-7c2.37-.29,4.27.25,7.54,2.14,5.29,3,5.69,5.62,8.8,9.23.23.26.46.52.73.78a21.56,21.56,0,0,0,1.9,1.78,27.72,27.72,0,0,0,2.58,1.89,1.94,1.94,0,0,0,.34.21l.07.07.14.09c7.4,5.08,19.16,5.36,28.14,3.25-4.53-1-8.87-1.91-12.75-4.23-2.12-1.23-3.82-2.22-3.78-3.69h0l.43-30.61h0a1.49,1.49,0,0,1,0-.36.86.86,0,0,1,.09-.3.29.29,0,0,1,.06-.15,1.41,1.41,0,0,1,.14-.31.1.1,0,0,1,.05-.07,2.33,2.33,0,0,1,.23-.39c1.4-2.26,8-6.31,11.61-8.37l26.33-15.22L466.27,301a9.69,9.69,0,0,1,4.4,4.64,2.84,2.84,0,0,1,.17.49A7,7,0,0,1,471.13,308.12Z" style="fill:#BA68C8"></path><path d="M471.13,308.12v.22c-.14,3.11-2.48,6.35-6.88,8.9L364,375v30.59l-23-13.16-.2-.13-.08,0,0,0-3.26-1.87h0l-13.16-7.28a.51.51,0,0,0-.15-.07.51.51,0,0,0-.17-.08c-.29-.14-.57-.23-.84-.37l-1.46-.6-.88-.32-.23-.08a34,34,0,0,0-4.62-1.38l-.28-.08a14.69,14.69,0,0,0-1.47-.29c-.23-.05-.47-.08-.69-.11l-.22,0-1.12-.17c-.32,0-.66-.06-1-.07l-.23,0h-.09a23.8,23.8,0,0,0-2.52-.1l-1,0h-.47l-1.2.09h0l-.73.08c-.25,0-.49.05-.74.09l-.63.09-.61.1-1.48.3h0a33.28,33.28,0,0,0-3.9,1.11h0c-.49.17-1,.37-1.55.58l-.26.09-.35.14a.59.59,0,0,0-.14.06,3,3,0,0,1-.36.14l-2,.92-.66.33h0c-.84.44-1.7.9-2.56,1.38h0l-.08.05c-.7.44-1.45.87-2.15,1.31l-.21.13-.2.14-.17.11c-.44.3-.9.6-1.31.89h0c-5.4,3.61-7.71,8.4-13,12.07-.42.28-.85.57-1.31.86l-.06,0-.06.05a2.8,2.8,0,0,1-.32.2,7.67,7.67,0,0,1-.71.46c-5.49,3.27-17.43,4.09-20.27-1.89a3,3,0,0,1-.14-.46,5.66,5.66,0,0,1-.17-1.43V366.83h0a5.17,5.17,0,0,1,0-.54c.19-2.3,2.8-4.76,5.62-6l.08-.05.07,0c4.86-2.59,8.77-3.42,13.55-4.93.34-.09.66-.2,1-.3,1-.31,2-.65,3.07-1.06l1.05-.41-18.43-10.88V312.05c7.42-4.27,19.05-11,26.35-15.21s12.67-6.56,16.09-7c2.37-.29,4.27.25,7.54,2.14,5.29,3,5.69,5.62,8.8,9.23.23.26.46.52.73.78a21.56,21.56,0,0,0,1.9,1.78,27.72,27.72,0,0,0,2.58,1.89,1.94,1.94,0,0,0,.34.21l.07.07.14.09c7.4,5.08,19.16,5.36,28.14,3.25-4.53-1-8.87-1.91-12.75-4.23-2.12-1.23-3.82-2.22-3.78-3.69h0l.43-30.61h0a1.49,1.49,0,0,1,0-.36.86.86,0,0,1,.09-.3.29.29,0,0,1,.06-.15,1.41,1.41,0,0,1,.14-.31.1.1,0,0,1,.05-.07,2.33,2.33,0,0,1,.23-.39c1.4-2.26,8-6.31,11.61-8.37l26.33-15.22L466.27,301a9.69,9.69,0,0,1,4.4,4.64,2.84,2.84,0,0,1,.17.49A7,7,0,0,1,471.13,308.12Z" style="fill:#fff;opacity:0.8"></path><path d="M331.54,301.34h0l.43-30.59h0c-.06,1.48,1.66,2.46,3.78,3.69,7.77,4.41,15.14,3.5,23.83,8.14,11,4.78,11.29,15.8-.9,22.63A38.92,38.92,0,0,1,348,309.26l-2-.49A34.93,34.93,0,0,1,335.32,305C333.2,303.81,331.5,302.82,331.54,301.34Z" style="fill:#BA68C8"></path><path d="M331.54,301.34h0l.43-30.59h0c-.06,1.48,1.66,2.46,3.78,3.69,7.77,4.41,15.14,3.5,23.83,8.14,11,4.78,11.29,15.8-.9,22.63A38.92,38.92,0,0,1,348,309.26l-2-.49A34.93,34.93,0,0,1,335.32,305C333.2,303.81,331.5,302.82,331.54,301.34Z" style="fill:#fff;opacity:0.4"></path><path d="M273.83,353.56l-18.45-10.9V312.05h0l22.8,13.17.06,0,0,0,6.53,4.16.08,0,.05,0c.15.1.28.21.43.32l.2.17c.55.41,1,.78,1.49,1.2l.15.12a18.76,18.76,0,0,1,1.37,1.3c.28.27.52.55.76.83l.08.09c.11.13.22.26.31.39a11.06,11.06,0,0,1,.76,1.12.93.93,0,0,1,.15.24,7.41,7.41,0,0,1,.63,1.41c0,.07.06.17.08.26a8.42,8.42,0,0,1,.22,1.19,7.44,7.44,0,0,1-.06,1.56v.07a6.75,6.75,0,0,1-.51,1.64,1.34,1.34,0,0,1-.07.18,12.15,12.15,0,0,1-2.49,3.32c-.5.49-1,.93-1.58,1.4A52.35,52.35,0,0,1,273.83,353.56Z" style="fill:#BA68C8"></path><path d="M273.83,353.56l-18.45-10.9V312.05h0l22.8,13.17.06,0,0,0,6.53,4.16.08,0,.05,0c.15.1.28.21.43.32l.2.17c.55.41,1,.78,1.49,1.2l.15.12a18.76,18.76,0,0,1,1.37,1.3c.28.27.52.55.76.83l.08.09c.11.13.22.26.31.39a11.06,11.06,0,0,1,.76,1.12.93.93,0,0,1,.15.24,7.41,7.41,0,0,1,.63,1.41c0,.07.06.17.08.26a8.42,8.42,0,0,1,.22,1.19,7.44,7.44,0,0,1-.06,1.56v.07a6.75,6.75,0,0,1-.51,1.64,1.34,1.34,0,0,1-.07.18,12.15,12.15,0,0,1-2.49,3.32c-.5.49-1,.93-1.58,1.4A52.35,52.35,0,0,1,273.83,353.56Z" style="fill:#fff;opacity:0.4"></path><path d="M364,375v30.59l-23-13.16-.2-.11-.08-.05,0,0-3.26-1.87h0l-13.16-7.29a.52.52,0,0,1-.15-.06.51.51,0,0,0-.17-.08c-.22-.11-.41-.17-.61-.26l-.23-.09c-.48-.21-1-.44-1.46-.62l-.88-.32-.23-.08a34,34,0,0,0-4.62-1.38l-.28-.08a14.69,14.69,0,0,0-1.47-.29l-.43-.06-.13,0-.13,0-.22,0a18.53,18.53,0,0,0-2.1-.26h-.32c-.81-.08-1.6-.1-2.39-.1l-.13,0c-.33,0-.63,0-1,0a3.69,3.69,0,0,0-.47,0l-1.2.1h0l-.73.08-.74.08-.63.1-.61.1c-.51.09-1,.18-1.48.3h0c-.46.11-.94.21-1.4.34l-1.32.38-.14,0-1,.35h0c-.58.19-1.23.44-1.81.69l-.35.12a.59.59,0,0,0-.14.06l-.36.16c-.61.26-1.18.52-1.73.8l-.26.1c-.23.11-.43.2-.66.33h0c-.84.44-1.7.9-2.56,1.38h0l-.08.05c-.71.44-1.46.87-2.15,1.32l-.21.12-.2.14-.17.11c-.44.3-.9.6-1.31.89l-.06.06h0c-5.38,3.59-7.65,8.36-13,12-.42.28-.85.55-1.31.84l-.06,0-.06,0-.32.22a7.67,7.67,0,0,1-.71.46c-5.7,3.22-15.88,3.93-19.82-1a3.27,3.27,0,0,1-.45-.87,3,3,0,0,1-.14-.46,5.66,5.66,0,0,1-.17-1.43V366.83a4.53,4.53,0,0,0,1.25,3c5,4.71,14,3.84,19.78.7.3-.17.64-.41,1-.66l.06,0,.06,0a27,27,0,0,0,5.06-4c.26-.25.49-.49.73-.74,1.21-1.31,2.19-2.49,3.49-3.84.55-.57,1.11-1.1,1.7-1.66a38,38,0,0,1,3.3-2.65l.07,0v0c.49-.31,1-.65,1.49-1a4.21,4.21,0,0,1,.41-.28c.14-.09.26-.17.41-.25l.42-.26.63-.37.69-.43.08,0h0c.85-.5,1.71-.95,2.58-1.4.21-.11.44-.21.66-.31l.26-.12c.82-.41,1.7-.79,2.58-1.15l.24-.09h0c.9-.36,1.83-.69,2.75-1l.75-.22c.36-.11.7-.18,1.05-.29l.92-.21h0c.49-.11,1-.22,1.48-.29s.83-.14,1.24-.2,1-.13,1.46-.17l1.24-.09c.47,0,1,0,1.43-.05h.71c.17,0,.35,0,.54,0,.43,0,.86,0,1.29.06h.09l.23,0a2.91,2.91,0,0,1,.49.05,3.73,3.73,0,0,1,.47,0c.38.05.78.09,1.14.16l.22,0,.24,0,.46.08.14,0a1.65,1.65,0,0,1,.32.06,4.64,4.64,0,0,1,.51.11c.15,0,.32.06.49.09l.28.07c.84.19,1.67.42,2.49.68l.26.06.66.22c.4.12.81.27,1.23.43l.21.09.14,0,.11.05.63.23,1.46.61.23.09c.3.14.63.26.93.42l4,1.9,3.26,1.87.12.07.2.12Z" style="fill:#BA68C8"></path><path d="M364,375v30.59l-23-13.16-.2-.11-.08-.05,0,0-3.26-1.87h0l-13.16-7.29a.52.52,0,0,1-.15-.06.51.51,0,0,0-.17-.08c-.22-.11-.41-.17-.61-.26l-.23-.09c-.48-.21-1-.44-1.46-.62l-.88-.32-.23-.08a34,34,0,0,0-4.62-1.38l-.28-.08a14.69,14.69,0,0,0-1.47-.29l-.43-.06-.13,0-.13,0-.22,0a18.53,18.53,0,0,0-2.1-.26h-.32c-.81-.08-1.6-.1-2.39-.1l-.13,0c-.33,0-.63,0-1,0a3.69,3.69,0,0,0-.47,0l-1.2.1h0l-.73.08-.74.08-.63.1-.61.1c-.51.09-1,.18-1.48.3h0c-.46.11-.94.21-1.4.34l-1.32.38-.14,0-1,.35h0c-.58.19-1.23.44-1.81.69l-.35.12a.59.59,0,0,0-.14.06l-.36.16c-.61.26-1.18.52-1.73.8l-.26.1c-.23.11-.43.2-.66.33h0c-.84.44-1.7.9-2.56,1.38h0l-.08.05c-.71.44-1.46.87-2.15,1.32l-.21.12-.2.14-.17.11c-.44.3-.9.6-1.31.89l-.06.06h0c-5.38,3.59-7.65,8.36-13,12-.42.28-.85.55-1.31.84l-.06,0-.06,0-.32.22a7.67,7.67,0,0,1-.71.46c-5.7,3.22-15.88,3.93-19.82-1a3.27,3.27,0,0,1-.45-.87,3,3,0,0,1-.14-.46,5.66,5.66,0,0,1-.17-1.43V366.83a4.53,4.53,0,0,0,1.25,3c5,4.71,14,3.84,19.78.7.3-.17.64-.41,1-.66l.06,0,.06,0a27,27,0,0,0,5.06-4c.26-.25.49-.49.73-.74,1.21-1.31,2.19-2.49,3.49-3.84.55-.57,1.11-1.1,1.7-1.66a38,38,0,0,1,3.3-2.65l.07,0v0c.49-.31,1-.65,1.49-1a4.21,4.21,0,0,1,.41-.28c.14-.09.26-.17.41-.25l.42-.26.63-.37.69-.43.08,0h0c.85-.5,1.71-.95,2.58-1.4.21-.11.44-.21.66-.31l.26-.12c.82-.41,1.7-.79,2.58-1.15l.24-.09h0c.9-.36,1.83-.69,2.75-1l.75-.22c.36-.11.7-.18,1.05-.29l.92-.21h0c.49-.11,1-.22,1.48-.29s.83-.14,1.24-.2,1-.13,1.46-.17l1.24-.09c.47,0,1,0,1.43-.05h.71c.17,0,.35,0,.54,0,.43,0,.86,0,1.29.06h.09l.23,0a2.91,2.91,0,0,1,.49.05,3.73,3.73,0,0,1,.47,0c.38.05.78.09,1.14.16l.22,0,.24,0,.46.08.14,0a1.65,1.65,0,0,1,.32.06,4.64,4.64,0,0,1,.51.11c.15,0,.32.06.49.09l.28.07c.84.19,1.67.42,2.49.68l.26.06.66.22c.4.12.81.27,1.23.43l.21.09.14,0,.11.05.63.23,1.46.61.23.09c.3.14.63.26.93.42l4,1.9,3.26,1.87.12.07.2.12Z" style="fill:#fff;opacity:0.4"></path><path d="M304.37,281.93v9.48c-2.69-1.44-4.43-1.83-6.55-1.57-3.41.43-8.68,2.72-16.08,7L269,304.18h0l-13.65,7.88h0v12.2c-1.67-1-7.44-4.31-9.21-5.33l.08-12.14h0l32.57-18.63,0,0h0l.05,0,.1-.05c2.25-1.15,4.32-2.11,6.4-3,.63-.24,1.25-.51,1.87-.73l.18-.05c.41-.16.8-.3,1.19-.43l1.28-.41a34.72,34.72,0,0,1,4-1l.2,0,.89-.17c.64-.12,1.28-.2,1.79-.27H297l.65-.1c.9-.08,1.79-.13,2.66-.15s1.71,0,2.62.07l.53.07h.1A7.4,7.4,0,0,1,304.37,281.93Z" style="fill:#BA68C8"></path><path d="M361.38,240.29v10.56c-2.17,1.27-18.45,10.62-20.17,11.7-.84.52-1.7,1-2.52,1.58-.49.32-1,.65-1.46,1l-.68.48a2.48,2.48,0,0,0-.26.19c-.28.19-.53.38-.77.57a.13.13,0,0,1-.07,0l-.75.61-.05.05c-.21.17-.41.35-.59.51a.74.74,0,0,0-.13.12,7,7,0,0,0-.55.54l-.32.35-.11.14a1.68,1.68,0,0,0-.27.34l-.08.11a2.77,2.77,0,0,0-.22.34.35.35,0,0,0-.05.08,2.87,2.87,0,0,0-.19.4,2.31,2.31,0,0,0-.18.77l-.18,12.81a38.65,38.65,0,0,1-6.29-2.87h0l-.28-.16-.08,0-.19-.12,0,0c-.86-.5-1.65-1-2.44-1.6-.35-.28-.76-.57-1.11-.89-.2-.16-.37-.32-.54-.48s-.6-.61-.86-.89-.35-.42-.51-.62a8,8,0,0,1-.53-.81,5.57,5.57,0,0,1-.68-1.47l0-.11c-.06-.19-.11-.37-.16-.54a4.65,4.65,0,0,1-.07-.88,4.79,4.79,0,0,1,0-.94,5.25,5.25,0,0,1,.44-1.73l.05-.15c.1-.24.2-.46.32-.72a7,7,0,0,1,.47-.78,6.74,6.74,0,0,1,.46-.68,8,8,0,0,1,.64-.83,15.79,15.79,0,0,1,1.37-1.47c.15-.16.32-.31.49-.47.36-.33.72-.66,1.12-1a2.6,2.6,0,0,1,.31-.25l.12-.11c1.48-1.19,3.21-2.44,5.27-3.79h0l0,0,5.06-3.08,0,0,0,0,.31-.18.49-.28Z" style="fill:#BA68C8"></path><path d="M353.9,294.45v13a45.68,45.68,0,0,1-12.5,2.83l-.23,0c-1,.08-2,.12-3,.14l-.63,0v-8.13C343.52,302.94,352.81,300.54,353.9,294.45Z" style="fill:#BA68C8"></path><g style="opacity:0.2"><path d="M304.37,281.93v9.48c-2.69-1.44-4.43-1.83-6.55-1.57-3.41.43-8.68,2.72-16.08,7L269,304.18h0l-13.65,7.88h0v12.2c-1.67-1-7.44-4.31-9.21-5.33l.08-12.14h0l32.57-18.63,0,0h0l.05,0,.1-.05c2.25-1.15,4.32-2.11,6.4-3,.63-.24,1.25-.51,1.87-.73l.18-.05c.41-.16.8-.3,1.19-.43l1.28-.41a34.72,34.72,0,0,1,4-1l.2,0,.89-.17c.64-.12,1.28-.2,1.79-.27H297l.65-.1c.9-.08,1.79-.13,2.66-.15s1.71,0,2.62.07l.53.07h.1A7.4,7.4,0,0,1,304.37,281.93Z" style="fill:#fff;opacity:0.30000000000000004"></path><path d="M361.38,240.29v10.56c-2.17,1.27-18.45,10.62-20.17,11.7-.84.52-1.7,1-2.52,1.58-.49.32-1,.65-1.46,1l-.68.48a2.48,2.48,0,0,0-.26.19c-.28.19-.53.38-.77.57a.13.13,0,0,1-.07,0l-.75.61-.05.05c-.21.17-.41.35-.59.51a.74.74,0,0,0-.13.12,7,7,0,0,0-.55.54l-.32.35-.11.14a1.68,1.68,0,0,0-.27.34l-.08.11a2.77,2.77,0,0,0-.22.34.35.35,0,0,0-.05.08,2.87,2.87,0,0,0-.19.4,2.31,2.31,0,0,0-.18.77l-.18,12.81a38.65,38.65,0,0,1-6.29-2.87h0l-.28-.16-.08,0-.19-.12,0,0c-.86-.5-1.65-1-2.44-1.6-.35-.28-.76-.57-1.11-.89-.2-.16-.37-.32-.54-.48s-.6-.61-.86-.89-.35-.42-.51-.62a8,8,0,0,1-.53-.81,5.57,5.57,0,0,1-.68-1.47l0-.11c-.06-.19-.11-.37-.16-.54a4.65,4.65,0,0,1-.07-.88,4.79,4.79,0,0,1,0-.94,5.25,5.25,0,0,1,.44-1.73l.05-.15c.1-.24.2-.46.32-.72a7,7,0,0,1,.47-.78,6.74,6.74,0,0,1,.46-.68,8,8,0,0,1,.64-.83,15.79,15.79,0,0,1,1.37-1.47c.15-.16.32-.31.49-.47.36-.33.72-.66,1.12-1a2.6,2.6,0,0,1,.31-.25l.12-.11c1.48-1.19,3.21-2.44,5.27-3.79h0l0,0,5.06-3.08,0,0,0,0,.31-.18.49-.28Z" style="fill:#fff;opacity:0.30000000000000004"></path><path d="M353.9,294.45v13a45.68,45.68,0,0,1-12.5,2.83l-.23,0c-1,.08-2,.12-3,.14l-.63,0v-8.13C343.52,302.94,352.81,300.54,353.9,294.45Z" style="fill:#fff"></path></g><path d="M353.89,294.24h0v.21c-1.09,6.09-10.38,8.49-16.35,7.93v8.13c-6.3,0-13.11-1.32-17.61-4.48l-.56-.38a23.76,23.76,0,0,1-5.91-5.3c-2.53-3.42-4.07-6.44-9.1-8.94v-9.48a7.4,7.4,0,0,0-.84-.11h-.1l-.53-.07c-.91-.05-1.76-.08-2.62-.07s-1.76.07-2.66.15l-.65.1h-.14c-.51.07-1.15.15-1.79.27l-.89.17-.2,0a34.72,34.72,0,0,0-4,1l-1.28.41c-.39.13-.78.27-1.19.43l-.18.05c-.62.22-1.24.49-1.87.73-2.08.86-4.15,1.82-6.4,3l-.1.05-.05,0h0l0,0-32.57,18.63h0l-.08,12.14-1.33-.77-9.2,5.32.06-10.59-22.2-12.82V285a1.63,1.63,0,0,1,0-.31.67.67,0,0,1,.05-.19s0,0,0,0a1,1,0,0,1,.08-.22l.06-.15a.78.78,0,0,1,.1-.15,4.94,4.94,0,0,1,1.1-1.2h0l.37-.29.21-.16a.91.91,0,0,0,.16-.11,42.57,42.57,0,0,1,6.8-3.75l.13-.06c.34-.15.68-.28,1-.41,1.18-.48,2.35-.87,3.52-1.24h0l0,0h0c.73-.22,1.43-.45,2.18-.65l.25-.08h.07l.11,0,.18-.06c1.82-.54,3.63-1.09,5.42-1.7l.86-.3.86-.32c.84-.31,1.68-.63,2.52-1l.55-.23c.5-.2,1-.46,1.49-.67V257.82h0v0a3.74,3.74,0,0,0-.25-1.11s0-.06,0-.09a5.4,5.4,0,0,0-.54-1,1.67,1.67,0,0,1-.12-.16,5.68,5.68,0,0,0-.83-.88,7.81,7.81,0,0,0-1.3-.93l0,0c-5.34-3-13.91-2.14-19,1.44l-.07,0a29,29,0,0,0-7.18,6.27,39.8,39.8,0,0,1-11.79,9.53,33.59,33.59,0,0,1-3.12,1.62c-.91.44-1.72.8-2.63,1.15l-.08,0-1.37.52-1.28.42a34.49,34.49,0,0,1-4.21,1,20.64,20.64,0,0,1-2.19.32l-.23,0c-.86.09-1.73.15-2.58.17l-1.13,0c-.48,0-1,0-1.45-.07h-.22a29.83,29.83,0,0,1-3.29-.38,38.21,38.21,0,0,1-3.78-.86c-.22-.05-.44-.13-.66-.19l-.13-.05c-.51-.15-1-.3-1.52-.49l-.33-.11-.14-.05a58.16,58.16,0,0,1-5.94-2.56l-.05,0,0,0-4.68-2.49,0,0h0l-.28-.16-.42-.24L140.72,258V245.82c16.38-9.45,82.67-47.75,100.29-57.9,8.33-4.68,20.78-5.15,27.92-1l92.45,53.4L335,255.51l-.49.28-.31.18,0,0,0,0-5.06,3.08,0,0h0c-2.06,1.35-3.79,2.6-5.27,3.79l-.12.11a2.6,2.6,0,0,0-.31.25c-.4.33-.76.66-1.12,1-.17.16-.34.31-.49.47a15.79,15.79,0,0,0-1.37,1.47,8,8,0,0,0-.64.83,6.74,6.74,0,0,0-.46.68,7,7,0,0,0-.47.78c-.12.26-.22.48-.32.72l-.05.15a5.25,5.25,0,0,0-.44,1.73,4.79,4.79,0,0,0,0,.94,4.65,4.65,0,0,0,.07.88c0,.17.1.35.16.54l0,.11a5.57,5.57,0,0,0,.68,1.47,8,8,0,0,0,.53.81c.16.2.32.41.51.62s.57.59.86.89.34.32.54.48c.35.32.76.61,1.11.89.79.57,1.58,1.1,2.44,1.6l0,0,.19.12.08,0,.28.16h0a39.67,39.67,0,0,0,8.55,3.6l.2.06c4.36,1.34,9,1.88,13.26,3.66.47.19.95.4,1.44.65l.74.36.05,0,.07,0c.28.14.56.26.79.39a5.26,5.26,0,0,1,.65.38l.29.2a4.52,4.52,0,0,1,.47.37l.26.22.23.23a3.47,3.47,0,0,1,.39.47,5.14,5.14,0,0,1,.5.72,2.7,2.7,0,0,1,.17.34,2.73,2.73,0,0,1,.16.43A4.88,4.88,0,0,1,353.89,294.24Z" style="fill:#BA68C8"></path><path d="M353.89,294.24h0v.21c-1.09,6.09-10.38,8.49-16.35,7.93v8.13c-6.3,0-13.11-1.32-17.61-4.48l-.56-.38a23.76,23.76,0,0,1-5.91-5.3c-2.53-3.42-4.07-6.44-9.1-8.94v-9.48a7.4,7.4,0,0,0-.84-.11h-.1l-.53-.07c-.91-.05-1.76-.08-2.62-.07s-1.76.07-2.66.15l-.65.1h-.14c-.51.07-1.15.15-1.79.27l-.89.17-.2,0a34.72,34.72,0,0,0-4,1l-1.28.41c-.39.13-.78.27-1.19.43l-.18.05c-.62.22-1.24.49-1.87.73-2.08.86-4.15,1.82-6.4,3l-.1.05-.05,0h0l0,0-32.57,18.63h0l-.08,12.14-1.33-.77-9.2,5.32.06-10.59-22.2-12.82V285a1.63,1.63,0,0,1,0-.31.67.67,0,0,1,.05-.19s0,0,0,0a1,1,0,0,1,.08-.22l.06-.15a.78.78,0,0,1,.1-.15,4.94,4.94,0,0,1,1.1-1.2h0l.37-.29.21-.16a.91.91,0,0,0,.16-.11,42.57,42.57,0,0,1,6.8-3.75l.13-.06c.34-.15.68-.28,1-.41,1.18-.48,2.35-.87,3.52-1.24h0l0,0h0c.73-.22,1.43-.45,2.18-.65l.25-.08h.07l.11,0,.18-.06c1.82-.54,3.63-1.09,5.42-1.7l.86-.3.86-.32c.84-.31,1.68-.63,2.52-1l.55-.23c.5-.2,1-.46,1.49-.67V257.82h0v0a3.74,3.74,0,0,0-.25-1.11s0-.06,0-.09a5.4,5.4,0,0,0-.54-1,1.67,1.67,0,0,1-.12-.16,5.68,5.68,0,0,0-.83-.88,7.81,7.81,0,0,0-1.3-.93l0,0c-5.34-3-13.91-2.14-19,1.44l-.07,0a29,29,0,0,0-7.18,6.27,39.8,39.8,0,0,1-11.79,9.53,33.59,33.59,0,0,1-3.12,1.62c-.91.44-1.72.8-2.63,1.15l-.08,0-1.37.52-1.28.42a34.49,34.49,0,0,1-4.21,1,20.64,20.64,0,0,1-2.19.32l-.23,0c-.86.09-1.73.15-2.58.17l-1.13,0c-.48,0-1,0-1.45-.07h-.22a29.83,29.83,0,0,1-3.29-.38,38.21,38.21,0,0,1-3.78-.86c-.22-.05-.44-.13-.66-.19l-.13-.05c-.51-.15-1-.3-1.52-.49l-.33-.11-.14-.05a58.16,58.16,0,0,1-5.94-2.56l-.05,0,0,0-4.68-2.49,0,0h0l-.28-.16-.42-.24L140.72,258V245.82c16.38-9.45,82.67-47.75,100.29-57.9,8.33-4.68,20.78-5.15,27.92-1l92.45,53.4L335,255.51l-.49.28-.31.18,0,0,0,0-5.06,3.08,0,0h0c-2.06,1.35-3.79,2.6-5.27,3.79l-.12.11a2.6,2.6,0,0,0-.31.25c-.4.33-.76.66-1.12,1-.17.16-.34.31-.49.47a15.79,15.79,0,0,0-1.37,1.47,8,8,0,0,0-.64.83,6.74,6.74,0,0,0-.46.68,7,7,0,0,0-.47.78c-.12.26-.22.48-.32.72l-.05.15a5.25,5.25,0,0,0-.44,1.73,4.79,4.79,0,0,0,0,.94,4.65,4.65,0,0,0,.07.88c0,.17.1.35.16.54l0,.11a5.57,5.57,0,0,0,.68,1.47,8,8,0,0,0,.53.81c.16.2.32.41.51.62s.57.59.86.89.34.32.54.48c.35.32.76.61,1.11.89.79.57,1.58,1.1,2.44,1.6l0,0,.19.12.08,0,.28.16h0a39.67,39.67,0,0,0,8.55,3.6l.2.06c4.36,1.34,9,1.88,13.26,3.66.47.19.95.4,1.44.65l.74.36.05,0,.07,0c.28.14.56.26.79.39a5.26,5.26,0,0,1,.65.38l.29.2a4.52,4.52,0,0,1,.47.37l.26.22.23.23a3.47,3.47,0,0,1,.39.47,5.14,5.14,0,0,1,.5.72,2.7,2.7,0,0,1,.17.34,2.73,2.73,0,0,1,.16.43A4.88,4.88,0,0,1,353.89,294.24Z" style="fill:#fff;opacity:0.5"></path><path d="M246.24,306.77l-.08,12.14-1.33-.77-9.2,5.32.06-10.59-22.2-12.82v-15a1.26,1.26,0,0,0,0,.33,1.43,1.43,0,0,0,.14.43v0a4.73,4.73,0,0,0,.69,1.12,7.1,7.1,0,0,0,.76.82c2,2.32,9.72,6.65,13.62,8.87S242.35,304.52,246.24,306.77Z" style="fill:#BA68C8"></path><path d="M246.24,306.77l-.08,12.14-1.33-.77-9.2,5.32.06-10.59-22.2-12.82v-15a1.26,1.26,0,0,0,0,.33,1.43,1.43,0,0,0,.14.43v0a4.73,4.73,0,0,0,.69,1.12,7.1,7.1,0,0,0,.76.82c2,2.32,9.72,6.65,13.62,8.87S242.35,304.52,246.24,306.77Z" style="fill:#fff;opacity:0.2"></path><path d="M255.3,259.51c-1,4.07-5.84,8.52-10.89,10.8-.9.42-1.75.91-2.7,1.33V257.82h0v0a3.74,3.74,0,0,0-.25-1.11s0-.06,0-.09a5.4,5.4,0,0,0-.54-1,1.67,1.67,0,0,1-.12-.16,5.68,5.68,0,0,0-.83-.88,7.81,7.81,0,0,0-1.3-.93l0,0c-5.34-3-13.91-2.14-19,1.44l-.07,0a29,29,0,0,0-7.18,6.27,39.8,39.8,0,0,1-11.79,9.53,33.59,33.59,0,0,1-3.12,1.62c-.91.44-1.72.8-2.63,1.15l-.08,0-1.37.52-1.28.42a34.49,34.49,0,0,1-4.21,1,20.64,20.64,0,0,1-2.19.32l-.23,0c-.86.09-1.73.15-2.58.17l-1.13,0c-.48,0-1,0-1.45-.07h-.22a29.83,29.83,0,0,1-3.29-.38,38.21,38.21,0,0,1-3.78-.86c-.22-.05-.44-.13-.66-.19l-.13-.05c-.51-.15-1-.3-1.52-.49l-.33-.11-.14-.05a58.16,58.16,0,0,1-5.94-2.56l-.05,0,0,0-4.68-2.49,0,0h0l-.28-.16-.42-.24L140.72,258V245.82l28.62,16.54c13.91,8,17,6.22,22.69,2.95a27.42,27.42,0,0,0,8.07-6.75,43.89,43.89,0,0,1,11.48-9.49c11.1-6.43,28-7.13,37.59-1.56C254.39,250.51,256.62,254.9,255.3,259.51Z" style="fill:#BA68C8"></path><path d="M255.3,259.51c-1,4.07-5.84,8.52-10.89,10.8-.9.42-1.75.91-2.7,1.33V257.82h0v0a3.74,3.74,0,0,0-.25-1.11s0-.06,0-.09a5.4,5.4,0,0,0-.54-1,1.67,1.67,0,0,1-.12-.16,5.68,5.68,0,0,0-.83-.88,7.81,7.81,0,0,0-1.3-.93l0,0c-5.34-3-13.91-2.14-19,1.44l-.07,0a29,29,0,0,0-7.18,6.27,39.8,39.8,0,0,1-11.79,9.53,33.59,33.59,0,0,1-3.12,1.62c-.91.44-1.72.8-2.63,1.15l-.08,0-1.37.52-1.28.42a34.49,34.49,0,0,1-4.21,1,20.64,20.64,0,0,1-2.19.32l-.23,0c-.86.09-1.73.15-2.58.17l-1.13,0c-.48,0-1,0-1.45-.07h-.22a29.83,29.83,0,0,1-3.29-.38,38.21,38.21,0,0,1-3.78-.86c-.22-.05-.44-.13-.66-.19l-.13-.05c-.51-.15-1-.3-1.52-.49l-.33-.11-.14-.05a58.16,58.16,0,0,1-5.94-2.56l-.05,0,0,0-4.68-2.49,0,0h0l-.28-.16-.42-.24L140.72,258V245.82l28.62,16.54c13.91,8,17,6.22,22.69,2.95a27.42,27.42,0,0,0,8.07-6.75,43.89,43.89,0,0,1,11.48-9.49c11.1-6.43,28-7.13,37.59-1.56C254.39,250.51,256.62,254.9,255.3,259.51Z" style="fill:#fff;opacity:0.2"></path><path d="M337.55,302.38v8.13c-6.3,0-13.11-1.32-17.61-4.48l-.56-.38a23.76,23.76,0,0,1-5.91-5.3c-2.53-3.42-4.07-6.44-9.1-8.94v-9.5l.18,0,1,.13c.19.05.37.08.55.11.69.12,1.35.28,2,.44.14,0,.24.08.37.11l.3.06.93.29,1.1.39a4,4,0,0,1,.39.16c.75.27,1.49.57,2.21.91,0,0,.1,0,.15.08a32.1,32.1,0,0,1,3.4,1.84,23.77,23.77,0,0,1,7.06,6.4l.35.5c.22.3.43.62.65.92v0a18.5,18.5,0,0,0,4.51,4.93h0c.32.23.67.47,1.06.72l0,0,.07,0,.27.22a5.6,5.6,0,0,0,.69.44,12.17,12.17,0,0,0,2.85,1.16,6.84,6.84,0,0,0,.81.19,5.69,5.69,0,0,0,1,.2,3.09,3.09,0,0,0,.68.09A4.86,4.86,0,0,0,337.55,302.38Z" style="fill:#BA68C8"></path><path d="M337.55,302.38v8.13c-6.3,0-13.11-1.32-17.61-4.48l-.56-.38a23.76,23.76,0,0,1-5.91-5.3c-2.53-3.42-4.07-6.44-9.1-8.94v-9.5l.18,0,1,.13c.19.05.37.08.55.11.69.12,1.35.28,2,.44.14,0,.24.08.37.11l.3.06.93.29,1.1.39a4,4,0,0,1,.39.16c.75.27,1.49.57,2.21.91,0,0,.1,0,.15.08a32.1,32.1,0,0,1,3.4,1.84,23.77,23.77,0,0,1,7.06,6.4l.35.5c.22.3.43.62.65.92v0a18.5,18.5,0,0,0,4.51,4.93h0c.32.23.67.47,1.06.72l0,0,.07,0,.27.22a5.6,5.6,0,0,0,.69.44,12.17,12.17,0,0,0,2.85,1.16,6.84,6.84,0,0,0,.81.19,5.69,5.69,0,0,0,1,.2,3.09,3.09,0,0,0,.68.09A4.86,4.86,0,0,0,337.55,302.38Z" style="fill:#fff;opacity:0.2"></path><g style="opacity:0.5"><path d="M256.71,185.05a23.94,23.94,0,0,1,11.73,2.68l91,52.56-24.85,14.36-.27.16-.26.14-.31.18-.05,0h0l-.07,0-4.92,3h0l-.14.09a62.7,62.7,0,0,0-5.36,3.86l-.11.09-.33.27c-.3.24-.56.48-.82.72l-.34.31-.12.11c-.14.13-.27.25-.39.38a16.3,16.3,0,0,0-1.43,1.53l-.1.12c-.19.24-.4.48-.58.75a5.87,5.87,0,0,0-.49.74,7.63,7.63,0,0,0-.54.9l-.11.26c-.08.17-.15.32-.23.52l0,.12a5.89,5.89,0,0,0-.5,2,5.54,5.54,0,0,0,0,1.09,8.42,8.42,0,0,0,.08,1v.06l0,.07c0,.17.11.36.19.59l0,.09a6.68,6.68,0,0,0,.76,1.66,7.92,7.92,0,0,0,.53.8l.07.1a7.92,7.92,0,0,0,.56.67c.27.31.59.63.92,1l.08.07a4.59,4.59,0,0,0,.5.44c.25.23.52.44.78.64l.38.3c.83.6,1.6,1.11,2.41,1.59h0l.09.06.19.11.06,0,.06,0h0l.22.14.24.14h0a41,41,0,0,0,8.5,3.54l.23.07c1.73.53,3.53,1,5.27,1.34a48.49,48.49,0,0,1,7.92,2.3,11.9,11.9,0,0,1,1.38.63l.12.05.53.25h0l.07.05.08,0h0l.25.11.51.26.55.32.13.08.07,0,0,0,0,0a4.08,4.08,0,0,1,.39.31l0,0,0,0,.09.07.07.06.09.09a.46.46,0,0,0,.07.07l0,0,0,0a2.67,2.67,0,0,1,.3.36,5.74,5.74,0,0,1,.41.58,2.06,2.06,0,0,1,.12.26,3.24,3.24,0,0,1,.13.33,3.65,3.65,0,0,1,.14,1.1v.27c-1,4.55-7.7,7-13.6,7-.58,0-1.14,0-1.66-.07l-.2,0-.31,0H337a3.07,3.07,0,0,1-.51-.08h-.11a5.34,5.34,0,0,1-.81-.15l-.09,0-.09,0a3.43,3.43,0,0,1-.65-.16h-.06a10.67,10.67,0,0,1-2.61-1.06,5.1,5.1,0,0,1-.56-.36l-.09-.07-.13-.1-.12-.11-.06,0-.05,0c-.36-.25-.7-.47-1-.7l-.24-.16a17.15,17.15,0,0,1-3.89-4.28v0l-.18-.26-.18-.26-.45-.63-.37-.53a24.9,24.9,0,0,0-7.35-6.66,32.73,32.73,0,0,0-3.42-1.87,1.28,1.28,0,0,0-.25-.11c-.8-.37-1.53-.68-2.23-.93l-.25-.1-.12-.05h-.06l-.74-.26-.36-.13h-.06l-.74-.23-.16,0-.11,0h-.1a.61.61,0,0,0-.17,0h0a3,3,0,0,0-.33-.1c-.8-.21-1.46-.35-2-.45l-.27-.05-.26-.05h-.07l-1-.14a1.48,1.48,0,0,0-.31,0c-.24,0-.48-.07-.74-.09h-.13l-.4,0H303c-.86,0-1.74-.07-2.68-.07h0c-.94,0-1.85.07-2.75.16l-.34.05-.29,0h-.17l-.16,0c-.48.06-1.06.14-1.66.25l-.73.14-.18,0-.21,0a35.34,35.34,0,0,0-4.06,1.06l-.84.26-.48.16c-.4.13-.79.27-1.2.43l-.19.06c-.35.12-.69.26-1,.39l-.89.35c-2.19.91-4.31,1.9-6.46,3l-.09,0h-.08l-.13.09-32.06,18.33-3.85-2.23c-4.65-2.69-10.43-6-13.17-7.6l-.43-.24c-3.88-2.21-11.09-6.31-12.94-8.41l0,0,0,0a5.58,5.58,0,0,1-.66-.72,4.3,4.3,0,0,1-.5-.76l-.08-.17a.74.74,0,0,1-.06-.18v-.06a.59.59,0,0,1,0-.14v-.14l0-.1v0l.25-.5h0a5.28,5.28,0,0,1,.79-.8l0,0,.09-.07.21-.17.2-.14,0,0,.12-.08a40.86,40.86,0,0,1,6.6-3.65l.19-.09,1-.38c1.17-.48,2.33-.86,3.33-1.17h.28l.11-.12.28-.08c.56-.17,1.11-.35,1.7-.5l.05,0h0l.1,0H230l.17-.08,0,0h0l.13,0c2.14-.63,3.86-1.17,5.43-1.71l.89-.31.33-.12.52-.2c.89-.32,1.76-.66,2.54-1l.56-.23,1-.42.56-.26c.56-.25,1.09-.52,1.6-.78s.74-.39,1.11-.56c5.71-2.57,10.41-7.28,11.43-11.41,1.46-5.09-.94-9.87-6.58-13.12-4.33-2.5-10.29-3.88-16.8-3.88a42.67,42.67,0,0,0-33.51,15.16,26.47,26.47,0,0,1-7.82,6.53c-2.66,1.53-4.57,2.64-7.27,2.64-3.28,0-7.73-1.73-14.43-5.59l-27.17-15.71,40.42-23.33c23.17-13.38,48.5-28,58.41-33.71a31.88,31.88,0,0,1,15.22-3.72m0-1a32.92,32.92,0,0,0-15.7,3.84c-17.62,10.15-83.91,48.45-100.29,57.89l28.62,16.55c7.31,4.22,11.64,5.72,14.92,5.72,3,0,5.08-1.22,7.77-2.77a27.14,27.14,0,0,0,8.07-6.75,44.09,44.09,0,0,1,11.48-9.49,43.6,43.6,0,0,1,21.28-5.32c6.12,0,12,1.23,16.32,3.76,5.21,3,7.45,7.39,6.12,12-1,4.07-5.84,8.52-10.89,10.8-.9.42-1.75.91-2.7,1.33-.49.21-1,.47-1.49.67-.19.08-.37.16-.55.22-.83.36-1.68.7-2.52,1l-.86.32-.86.3c-1.79.61-3.6,1.17-5.43,1.7l-.17.06-.11,0-.08,0-.24.07c-.75.2-1.45.42-2.18.65h0l0,0h0c-1.17.37-2.34.76-3.53,1.24l-1,.41-.12.06a41.3,41.3,0,0,0-6.79,3.75l-.17.11-.2.16c-.13.1-.27.19-.38.29h0a5.09,5.09,0,0,0-1.1,1.19,1.4,1.4,0,0,0-.1.16.94.94,0,0,0-.06.15.85.85,0,0,0-.09.22s0,0,0,0a.63.63,0,0,0,0,.19.85.85,0,0,0,0,.32v.07a1.66,1.66,0,0,0,0,.33,1.29,1.29,0,0,0,.13.44v0a5.88,5.88,0,0,0,.7,1.12,9.27,9.27,0,0,0,.76.83c2,2.31,9.72,6.64,13.62,8.86s13.6,7.85,17.49,10.09h0l32.56-18.61,0,0h0l.05,0,.1-.05c2.25-1.16,4.33-2.11,6.4-3,.63-.23,1.24-.49,1.87-.72l.18-.05c.41-.16.8-.3,1.2-.43l1.27-.41a34.72,34.72,0,0,1,4-1l.2,0c.3-.06.6-.13.89-.17.64-.12,1.27-.2,1.79-.27H297l.66-.09c.89-.08,1.79-.13,2.64-.15s1.72,0,2.63.07l.52.06h.11l.84.11h0l.17,0,1,.14.54.1c.68.12,1.35.28,2,.44a3.22,3.22,0,0,1,.37.12c.09,0,.21,0,.3,0l.93.29,1.11.39.38.15c.76.28,1.49.59,2.22.93a.56.56,0,0,1,.14.07,29.52,29.52,0,0,1,3.4,1.84,23.77,23.77,0,0,1,7.06,6.4l.35.5c.22.3.44.61.65.92h0a18.09,18.09,0,0,0,4.51,4.94h0c.32.23.67.46,1.05.72l.05,0,.07,0,.27.22c.26.18.46.32.69.45a12.13,12.13,0,0,0,2.85,1.14,5.33,5.33,0,0,0,.81.2,6.82,6.82,0,0,0,1,.2,4.14,4.14,0,0,0,.68.1l.56.06c.56.05,1.15.08,1.76.08,5.88,0,13.6-2.49,14.6-8v-.2h0a4.54,4.54,0,0,0-.18-1.42,2.73,2.73,0,0,0-.16-.43,2.69,2.69,0,0,0-.17-.34,6.07,6.07,0,0,0-.49-.72,4.51,4.51,0,0,0-.4-.47l-.23-.23a3,3,0,0,0-.26-.22c-.14-.12-.3-.25-.47-.37s-.19-.13-.29-.2a6.91,6.91,0,0,0-.65-.38c-.23-.14-.5-.25-.79-.39l-.06,0-.06,0-.74-.35c-.49-.25-1-.46-1.44-.65-4.22-1.78-8.89-2.32-13.26-3.66l-.2-.06a40.14,40.14,0,0,1-8.55-3.59h0l-.28-.17-.08,0-.19-.12h0c-.86-.51-1.65-1-2.44-1.61-.35-.28-.76-.57-1.11-.89-.2-.16-.37-.33-.53-.48-.31-.3-.62-.61-.87-.9s-.35-.4-.51-.61a7.16,7.16,0,0,1-.53-.82,5.37,5.37,0,0,1-.68-1.46l0-.11c-.06-.19-.12-.37-.17-.54a7.1,7.1,0,0,1-.06-.88,4.18,4.18,0,0,1,0-.95,5,5,0,0,1,.42-1.72l.06-.15c.1-.25.21-.46.32-.72a6.21,6.21,0,0,1,.47-.78,4.76,4.76,0,0,1,.46-.68,9.7,9.7,0,0,1,.64-.83,17.27,17.27,0,0,1,1.37-1.47l.49-.46c.37-.33.72-.68,1.12-1l.31-.25.12-.11c1.48-1.19,3.21-2.44,5.28-3.79h0l.05,0,5.05-3.08,0,0,0,0,.31-.19c.17-.08.32-.18.49-.27l26.34-15.22-92.45-53.4a24.88,24.88,0,0,0-12.22-2.81Z" style="fill:#fff"></path></g><path d="M241.71,258.09v13.57l-.94.42-1.1.46c-.78.34-1.52.63-2.24.89s-1.34.51-2,.73c-6,2.07-11,2.82-17.11,6.34-3.49,2-4.83,3.2-4.84,4.46v15.09l-.83-.48-.14-.09-.06,0-4.7-2.92,0,0-.12-.08a35.31,35.31,0,0,1-4-3.11l-.14-.12c-.18-.15-.33-.29-.48-.44a5.11,5.11,0,0,1-.64-.68,8.28,8.28,0,0,1-.64-.68c-.16-.21-.34-.42-.49-.64a7.32,7.32,0,0,1-.52-.76,7.58,7.58,0,0,1-.74-1.48l0-.11c0-.14-.1-.28-.14-.42a6.7,6.7,0,0,1-.23-1.12,1.51,1.51,0,0,0,0-.34,6.75,6.75,0,0,1,.64-3.12,11.63,11.63,0,0,1,.94-1.57l.18-.26.07-.08c.32-.41.69-.82,1.09-1.25l.3-.32c.45-.42,1-.89,1.53-1.33l.23-.2c5.81-4.69,15.31-8.22,20.74-9.64a53.42,53.42,0,0,0,10.72-4.07l.08-.05.08,0a14,14,0,0,0,1.27-.66c2.57-1.48,4.1-3.36,4.35-5.32C241.69,258.44,241.71,258.26,241.71,258.09Z" style="fill:#BA68C8"></path><path d="M235.68,312.87l-.06,10.59-17.13,9.88-.06.05-.05,0-8.23,4.4-.09.06-.08,0c-.8.39-1.63.78-2.43,1.12-.26.12-.51.23-.78.33l-.24.12c-.5.22-1,.42-1.51.62-.87.35-1.75.66-2.61,1l-.19.06c-.94.34-1.93.61-2.89.87a1.12,1.12,0,0,1-.27.08c-.83.22-1.72.41-2.61.57a2.45,2.45,0,0,1-.37.08c-.91.14-1.81.3-2.73.36h-.11c-.71.06-1.41.11-2.14.13h-.51a22,22,0,0,1-2.46-.07h0a28.9,28.9,0,0,1-5.39-.91l0,0c-.8-.22-1.62-.49-2.46-.8l-.19-.05c-4.39-1.69-8.91-4.45-11.73-7.8s-3.4-5.83-7.87-8.67a9.07,9.07,0,0,0-1-.65c-5.12-2.93-13.9-2.12-18.88,1.36a2.73,2.73,0,0,0-.25.2,5.72,5.72,0,0,0-.61.46c-.09.07-.14.14-.24.21a8.72,8.72,0,0,0-.68.68c-.16.19-.31.36-.45.54l-.11.17a4.59,4.59,0,0,0-.37.57.32.32,0,0,0-.08.15,5.4,5.4,0,0,0-.3.64s0,0,0,.09c-.08.24-.13.46-.19.69v.05a3.74,3.74,0,0,0-.07.75h0v13.92a42.79,42.79,0,0,1-5.66-2.38,15.75,15.75,0,0,1-1.82-.94c-9.62-5.54-8.41-15.29,2.69-21.69a42.19,42.19,0,0,1,16.83-5.1c8.86-.72,16.52.47,22.35,4.56a.67.67,0,0,1,.11.07,30.59,30.59,0,0,1,2.51,1.83,19.16,19.16,0,0,1,1.9,1.77c.34.34.64.66.93,1s.34.41.49.61c2.71,3.35,3.24,5.65,8.2,8.49,4.27,2.47,6.44,2.94,11.63,1.07a79.05,79.05,0,0,0,12-5.92l17.36-10v0Z" style="fill:#BA68C8"></path><path d="M159.12,354.1v13.46c-4.86,3-24.11,14-29.43,17.07v22L120.55,412V379.34l26.33-15.21c9.21-5.31,12.26-8.1,12.22-10Z" style="fill:#BA68C8"></path><path d="M241.71,258.09v13.57l-.94.42-1.1.46c-.78.34-1.52.63-2.24.89s-1.34.51-2,.73c-6,2.07-11,2.82-17.11,6.34-3.49,2-4.83,3.2-4.84,4.46v15.09l-.83-.48-.14-.09-.06,0-4.7-2.92,0,0-.12-.08a35.31,35.31,0,0,1-4-3.11l-.14-.12c-.18-.15-.33-.29-.48-.44a5.11,5.11,0,0,1-.64-.68,8.28,8.28,0,0,1-.64-.68c-.16-.21-.34-.42-.49-.64a7.32,7.32,0,0,1-.52-.76,7.58,7.58,0,0,1-.74-1.48l0-.11c0-.14-.1-.28-.14-.42a6.7,6.7,0,0,1-.23-1.12,1.51,1.51,0,0,0,0-.34,6.75,6.75,0,0,1,.64-3.12,11.63,11.63,0,0,1,.94-1.57l.18-.26.07-.08c.32-.41.69-.82,1.09-1.25l.3-.32c.45-.42,1-.89,1.53-1.33l.23-.2c5.81-4.69,15.31-8.22,20.74-9.64a53.42,53.42,0,0,0,10.72-4.07l.08-.05.08,0a14,14,0,0,0,1.27-.66c2.57-1.48,4.1-3.36,4.35-5.32C241.69,258.44,241.71,258.26,241.71,258.09Z" style="fill:#fff;opacity:0.5"></path><path d="M235.68,312.87l-.06,10.59-17.13,9.88-.06.05-.05,0-8.23,4.4-.09.06-.08,0c-.8.39-1.63.78-2.43,1.12-.26.12-.51.23-.78.33l-.24.12c-.5.22-1,.42-1.51.62-.87.35-1.75.66-2.61,1l-.19.06c-.94.34-1.93.61-2.89.87a1.12,1.12,0,0,1-.27.08c-.83.22-1.72.41-2.61.57a2.45,2.45,0,0,1-.37.08c-.91.14-1.81.3-2.73.36h-.11c-.71.06-1.41.11-2.14.13h-.51a22,22,0,0,1-2.46-.07h0a28.9,28.9,0,0,1-5.39-.91l0,0c-.8-.22-1.62-.49-2.46-.8l-.19-.05c-4.39-1.69-8.91-4.45-11.73-7.8s-3.4-5.83-7.87-8.67a9.07,9.07,0,0,0-1-.65c-5.12-2.93-13.9-2.12-18.88,1.36a2.73,2.73,0,0,0-.25.2,5.72,5.72,0,0,0-.61.46c-.09.07-.14.14-.24.21a8.72,8.72,0,0,0-.68.68c-.16.19-.31.36-.45.54l-.11.17a4.59,4.59,0,0,0-.37.57.32.32,0,0,0-.08.15,5.4,5.4,0,0,0-.3.64s0,0,0,.09c-.08.24-.13.46-.19.69v.05a3.74,3.74,0,0,0-.07.75h0v13.92a42.79,42.79,0,0,1-5.66-2.38,15.75,15.75,0,0,1-1.82-.94c-9.62-5.54-8.41-15.29,2.69-21.69a42.19,42.19,0,0,1,16.83-5.1c8.86-.72,16.52.47,22.35,4.56a.67.67,0,0,1,.11.07,30.59,30.59,0,0,1,2.51,1.83,19.16,19.16,0,0,1,1.9,1.77c.34.34.64.66.93,1s.34.41.49.61c2.71,3.35,3.24,5.65,8.2,8.49,4.27,2.47,6.44,2.94,11.63,1.07a79.05,79.05,0,0,0,12-5.92l17.36-10v0Z" style="fill:#fff;opacity:0.5"></path><path d="M159.12,354.1v13.46c-4.86,3-24.11,14-29.43,17.07v22L120.55,412V379.34l26.33-15.21c9.21-5.31,12.26-8.1,12.22-10Z" style="fill:#fff;opacity:0.5"></path><path d="M241.71,257.82c0,.26,0,.53,0,.8-.25,2-1.78,3.84-4.35,5.32a14,14,0,0,1-1.27.66l-.08,0-.08.05a53.42,53.42,0,0,1-10.72,4.07c-5.42,1.41-14.94,5-20.74,9.64l-.23.2c-.57.44-1.08.91-1.53,1.33l-.3.32c-.4.43-.77.84-1.09,1.25l-.07.08-.18.26a11.63,11.63,0,0,0-.94,1.57,6.75,6.75,0,0,0-.64,3.12,1.51,1.51,0,0,1,0,.34,6.7,6.7,0,0,0,.23,1.12c0,.14.1.28.14.42l0,.11a7.58,7.58,0,0,0,.74,1.48,7.32,7.32,0,0,0,.52.76c.15.22.33.43.49.64a8.28,8.28,0,0,0,.64.68,5.11,5.11,0,0,0,.64.68c.15.15.3.29.48.44l.14.12a35.31,35.31,0,0,0,4,3.11l.12.08,0,0,4.7,2.92.06,0,.14.09,23,13.3-9,5.21v0l-17.36,10a79.05,79.05,0,0,1-12,5.92c-5.19,1.87-7.36,1.4-11.63-1.07-5-2.84-5.49-5.14-8.2-8.49-.15-.2-.32-.4-.49-.61s-.59-.65-.93-1a19.16,19.16,0,0,0-1.9-1.77,30.59,30.59,0,0,0-2.51-1.83.67.67,0,0,0-.11-.07c-5.82-4.09-13.49-5.28-22.35-4.56a42.19,42.19,0,0,0-16.83,5.1c-11.1,6.4-12.31,16.15-2.69,21.69a15.75,15.75,0,0,0,1.82.94,42.2,42.2,0,0,0,8,3.1c.59.19,1.17.32,1.75.48,1.76.44,3.55.85,5.3,1.26l1,.23.18.05c.42.1,1,.27,1.44.39a28.63,28.63,0,0,1,3.36,1.19l.1.05c.44.19.88.4,1.34.63l.06,0c.17.09.34.18.5.28a30.38,30.38,0,0,1,3.07,1.84l.43.34.09.08c.11.09.21.19.31.29a1.31,1.31,0,0,1,.11.12,3.47,3.47,0,0,1,.3.4,1.79,1.79,0,0,1,.29,1c0,1.93-3,4.72-12.22,10l-26.33,15.21V412L27.9,358.53c-.31-.19-.6-.35-.88-.55s-.54-.37-.77-.57h0l-.68-.62a4.7,4.7,0,0,1-.57-.62,7.13,7.13,0,0,1-1.76-5V319h0a7.75,7.75,0,0,1,1.31-4.38c.27-.4.55-.79.87-1.18.16-.18.34-.39.52-.57a17.71,17.71,0,0,1,4.18-3.22l100-57.76,28.62,16.56.43.23.28.16,0,0,0,0,4.67,2.49,0,0,.05,0a56,56,0,0,0,5.94,2.56l.14.05.32.11c.51.18,1,.34,1.53.5l.13,0c.68.23,1.39.4,2.09.57s1.56.35,2.35.49l1,.15a22.2,22.2,0,0,0,2.29.23h.21a15.86,15.86,0,0,0,2.58.05c.86,0,1.74-.06,2.6-.15l.21,0c.37,0,.74-.07,1.09-.12h0c.38-.06.73-.12,1.1-.2l.29-.05c.41-.07.84-.16,1.26-.25a38.47,38.47,0,0,0,3.93-1.16c.46-.15.92-.33,1.39-.51l.07,0c.38-.14.77-.29,1.15-.46s.95-.43,1.48-.67l.29-.15c1-.46,1.67-.84,2.84-1.47a5.86,5.86,0,0,1,.55-.3c10.74-6.08,9.53-9.67,18.41-15.51l.07,0c5.85-4.12,17.49-4.9,21.53.95l0,.1a1.24,1.24,0,0,1,.15.33,1.44,1.44,0,0,1,.13.31,1.11,1.11,0,0,1,.07.26,1.36,1.36,0,0,1,.08.32.7.7,0,0,1,.05.25A1.71,1.71,0,0,1,241.71,257.82Z" style="fill:#BA68C8"></path><path d="M241.71,257.82c0,.26,0,.53,0,.8-.25,2-1.78,3.84-4.35,5.32a14,14,0,0,1-1.27.66l-.08,0-.08.05a53.42,53.42,0,0,1-10.72,4.07c-5.42,1.41-14.94,5-20.74,9.64l-.23.2c-.57.44-1.08.91-1.53,1.33l-.3.32c-.4.43-.77.84-1.09,1.25l-.07.08-.18.26a11.63,11.63,0,0,0-.94,1.57,6.75,6.75,0,0,0-.64,3.12,1.51,1.51,0,0,1,0,.34,6.7,6.7,0,0,0,.23,1.12c0,.14.1.28.14.42l0,.11a7.58,7.58,0,0,0,.74,1.48,7.32,7.32,0,0,0,.52.76c.15.22.33.43.49.64a8.28,8.28,0,0,0,.64.68,5.11,5.11,0,0,0,.64.68c.15.15.3.29.48.44l.14.12a35.31,35.31,0,0,0,4,3.11l.12.08,0,0,4.7,2.92.06,0,.14.09,23,13.3-9,5.21v0l-17.36,10a79.05,79.05,0,0,1-12,5.92c-5.19,1.87-7.36,1.4-11.63-1.07-5-2.84-5.49-5.14-8.2-8.49-.15-.2-.32-.4-.49-.61s-.59-.65-.93-1a19.16,19.16,0,0,0-1.9-1.77,30.59,30.59,0,0,0-2.51-1.83.67.67,0,0,0-.11-.07c-5.82-4.09-13.49-5.28-22.35-4.56a42.19,42.19,0,0,0-16.83,5.1c-11.1,6.4-12.31,16.15-2.69,21.69a15.75,15.75,0,0,0,1.82.94,42.2,42.2,0,0,0,8,3.1c.59.19,1.17.32,1.75.48,1.76.44,3.55.85,5.3,1.26l1,.23.18.05c.42.1,1,.27,1.44.39a28.63,28.63,0,0,1,3.36,1.19l.1.05c.44.19.88.4,1.34.63l.06,0c.17.09.34.18.5.28a30.38,30.38,0,0,1,3.07,1.84l.43.34.09.08c.11.09.21.19.31.29a1.31,1.31,0,0,1,.11.12,3.47,3.47,0,0,1,.3.4,1.79,1.79,0,0,1,.29,1c0,1.93-3,4.72-12.22,10l-26.33,15.21V412L27.9,358.53c-.31-.19-.6-.35-.88-.55s-.54-.37-.77-.57h0l-.68-.62a4.7,4.7,0,0,1-.57-.62,7.13,7.13,0,0,1-1.76-5V319h0a7.75,7.75,0,0,1,1.31-4.38c.27-.4.55-.79.87-1.18.16-.18.34-.39.52-.57a17.71,17.71,0,0,1,4.18-3.22l100-57.76,28.62,16.56.43.23.28.16,0,0,0,0,4.67,2.49,0,0,.05,0a56,56,0,0,0,5.94,2.56l.14.05.32.11c.51.18,1,.34,1.53.5l.13,0c.68.23,1.39.4,2.09.57s1.56.35,2.35.49l1,.15a22.2,22.2,0,0,0,2.29.23h.21a15.86,15.86,0,0,0,2.58.05c.86,0,1.74-.06,2.6-.15l.21,0c.37,0,.74-.07,1.09-.12h0c.38-.06.73-.12,1.1-.2l.29-.05c.41-.07.84-.16,1.26-.25a38.47,38.47,0,0,0,3.93-1.16c.46-.15.92-.33,1.39-.51l.07,0c.38-.14.77-.29,1.15-.46s.95-.43,1.48-.67l.29-.15c1-.46,1.67-.84,2.84-1.47a5.86,5.86,0,0,1,.55-.3c10.74-6.08,9.53-9.67,18.41-15.51l.07,0c5.85-4.12,17.49-4.9,21.53.95l0,.1a1.24,1.24,0,0,1,.15.33,1.44,1.44,0,0,1,.13.31,1.11,1.11,0,0,1,.07.26,1.36,1.36,0,0,1,.08.32.7.7,0,0,1,.05.25A1.71,1.71,0,0,1,241.71,257.82Z" style="fill:#fff;opacity:0.8"></path><path d="M120.54,379.35V412L27.9,358.53c-.31-.18-.6-.35-.88-.55a9.4,9.4,0,0,1-.76-.57h0A10.56,10.56,0,0,1,25,356.17a7.19,7.19,0,0,1-1.75-5v-31.8c0,.35.11.65.15,1a4,4,0,0,0,.33,1,2.57,2.57,0,0,0,.2.46.05.05,0,0,0,0,0c.06.14.14.28.21.42s0,.07.06.11a8.56,8.56,0,0,0,1.45,1.79A10.53,10.53,0,0,0,27,325.21c.35.24.73.49,1.15.73Z" style="fill:#BA68C8"></path><path d="M120.54,379.35V412L27.9,358.53c-.31-.18-.6-.35-.88-.55a9.4,9.4,0,0,1-.76-.57h0A10.56,10.56,0,0,1,25,356.17a7.19,7.19,0,0,1-1.75-5v-31.8c0,.35.11.65.15,1a4,4,0,0,0,.33,1,2.57,2.57,0,0,0,.2.46.05.05,0,0,0,0,0c.06.14.14.28.21.42s0,.07.06.11a8.56,8.56,0,0,0,1.45,1.79A10.53,10.53,0,0,0,27,325.21c.35.24.73.49,1.15.73Z" style="fill:#fff;opacity:0.4"></path><path d="M277.59,339.94,277.52,352l-.12.05c-7.53,3.68-14.67,4.19-22.23,8.21l-.07,0-.09,0c-.56.28-.93.46-1.26.65-2.56,1.48-4.11,3.38-4.35,5.33a3,3,0,0,0,0,.52h0v13.4c-16.58-3.59-19.22-17.32-3.25-25.32l.18-.1.09,0,.39-.2c1.17-.63,2.38-1.2,3.65-1.77l.61-.25c.93-.4,1.86-.78,2.78-1.13.52-.18,1.05-.36,1.55-.56,6.13-2.13,11.21-2.87,17.39-6.44C276.19,342.43,277.59,341.23,277.59,339.94Z" style="fill:#BA68C8"></path><path d="M277.59,339.94,277.52,352l-.12.05c-7.53,3.68-14.67,4.19-22.23,8.21l-.07,0-.09,0c-.56.28-.93.46-1.26.65-2.56,1.48-4.11,3.38-4.35,5.33a3,3,0,0,0,0,.52h0v13.4c-16.58-3.59-19.22-17.32-3.25-25.32l.18-.1.09,0,.39-.2c1.17-.63,2.38-1.2,3.65-1.77l.61-.25c.93-.4,1.86-.78,2.78-1.13.52-.18,1.05-.36,1.55-.56,6.13-2.13,11.21-2.87,17.39-6.44C276.19,342.43,277.59,341.23,277.59,339.94Z" style="fill:#fff;opacity:0.2"></path><path d="M353.67,381.09v32.59L253.42,471.44a31.61,31.61,0,0,1-13.12,3.85V442.72a31.85,31.85,0,0,0,13.32-3.87Z" style="fill:#BA68C8"></path><path d="M353.67,381.09v32.59L253.42,471.44a31.61,31.61,0,0,1-13.12,3.85V442.72a31.85,31.85,0,0,0,13.32-3.87Z" style="fill:#fff;opacity:0.2"></path><path d="M353.66,381.09l-100,57.76a31.76,31.76,0,0,1-13.31,3.87v32.57l-.38,0h-.16a.78.78,0,0,1-.26,0l-.35,0c-.29,0-.56,0-.85,0-.44,0-.88,0-1.32,0h-.71c-.09,0-.31,0-.41,0h-.1l-.67,0-.68-.05-.07,0-.42-.05-.37,0-.37-.06c-.24,0-.49-.06-.74-.11l-.21,0-.57-.09-.63-.13-.17,0a.79.79,0,0,0-.22-.06l-.33-.07a.79.79,0,0,0-.22,0h0l-.06,0a1.72,1.72,0,0,1-.28-.08s0,0,0,0l-.33-.09-.34-.09-.09,0-.09,0-.15,0-.12,0h0c-.08,0-.17-.05-.24-.08l-.09,0h0s0,0-.06,0-.07,0-.1,0l-.2-.09-.2-.09a1.7,1.7,0,0,1-.24-.09l-.1,0a5.91,5.91,0,0,0-.61-.24l-.28-.13-.26-.14-.34-.16h0a5.54,5.54,0,0,1-.59-.32c-18.68-10.8-76.22-44.22-95.55-55.41V384.62c8.21-4.74,21.39-12.3,29.43-17.06V354.11c0-1.45-1.69-2.42-3.78-3.63-6.22-3.57-11.55-3.45-18.15-5.75V330.81a2.06,2.06,0,0,1,0-.35s0,0,0-.07a1.59,1.59,0,0,1,.06-.38,4.35,4.35,0,0,1,.4-1.2,4.94,4.94,0,0,1,.32-.59.85.85,0,0,1,.14-.21,1.19,1.19,0,0,1,.22-.31l.24-.32c.24-.26.48-.54.75-.78.1-.1.21-.19.33-.29s0,0,.07-.05a4.31,4.31,0,0,1,.4-.32,11.77,11.77,0,0,1,1.42-1l.18-.1.06,0a6.54,6.54,0,0,1,.59-.3,1.09,1.09,0,0,1,.15-.08,18,18,0,0,1,3.31-1.23l.33-.09c.32-.07.62-.16.94-.22l.16,0c.27-.06.54-.1.82-.15.43-.08.86-.11,1.3-.16a21,21,0,0,1,5.54.13h0a18.56,18.56,0,0,1,2,.45h0a12.77,12.77,0,0,1,2.54,1.08l.44.27c.16.1.33.22.53.37l.05.05.07,0a19.55,19.55,0,0,1,2.74,2.15c2.07,2,3.15,4.3,5,6.46l.36.41c.11.13.23.27.36.4.4.43.88.87,1.33,1.28s.72.61,1.12.92c.19.15.38.31.59.45.54.41,1.06.76,1.66,1.14l.45.29c.7.42,1.44.85,2.16,1.24h0a34,34,0,0,0,3.69,1.65l.19.08c.34.13.67.25,1,.35s.41.14.62.19l.7.21h0l.13,0,0,0c.87.24,1.76.43,2.64.59h0q1.33.23,2.73.33h0a22,22,0,0,0,2.46.07h.52c.71,0,1.42-.06,2.13-.13a2,2,0,0,0,.34,0h0c.83-.11,1.65-.21,2.48-.36,1-.17,2-.39,3-.64l.23-.06h.05c.75-.2,1.48-.41,2.22-.66.23-.06.44-.14.66-.22l.19-.06c.85-.3,1.76-.61,2.61-1,.23-.1.51-.19.75-.29l.77-.32.25-.11.34-.15.12-.05.06,0,.24-.11.4-.17,1.17-.55.28-.14.29-.12.29-.14.08,0,.09-.06,8.23-4.41h.06l.05,0,26.33-15.2c4.24,2.44,11.36,6.54,15.53,9s9.42,5.2,13.26,8l.44.32c.27.21.54.41.78.63s.61.53.89.79l.38.38c.12.12.23.25.34.37a6.44,6.44,0,0,1,.55.7,1.2,1.2,0,0,1,.13.21,1.13,1.13,0,0,1,.12.21,1.92,1.92,0,0,1,.14.29,2.9,2.9,0,0,1,.2.87h0c0,1.32-1.39,2.5-4.83,4.49-6.18,3.57-11.26,4.31-17.39,6.44-.5.2-1,.38-1.55.56-.92.35-1.85.73-2.78,1.13l-.61.25c-1.27.57-2.48,1.14-3.65,1.77l-.39.2-.09,0-.18.1c-10.55,5-15.65,15.9-4.21,22.51a19,19,0,0,0,1.8.92,24.72,24.72,0,0,0,2.67,1.06l.87.28.64.18.46.13h0l1,.25h0l1,.22h0c.53.1,1.07.19,1.61.26l.09,0c.88.14,1.75.23,2.66.3h0l1,.07h.08c1.24.07,2.5.06,3.74,0,.78,0,1.56-.06,2.33-.14.31,0,.63-.05.93-.08H263l.26,0,.42-.05h0l.74-.09h.15l.26,0,.74-.11c.49-.07,1-.16,1.46-.26l.25-.05a3.1,3.1,0,0,0,.51-.11c.19,0,.39-.07.58-.12a3.63,3.63,0,0,0,.45-.1h.05a6,6,0,0,0,.64-.15l.19,0c.64-.15,1.27-.33,1.87-.51l.18-.06a1.15,1.15,0,0,0,.29-.08,1.19,1.19,0,0,1,.23-.07h0c.27-.08.53-.17.8-.27l.05,0,.95-.35.54-.2c.3-.11.6-.23.89-.36.78-.31,1.52-.67,2.26-1l.08,0,.44-.23c.2-.1.4-.2.59-.31s.39-.21.58-.32h0c.65-.38,1.29-.79,1.89-1.21l.18-.11c.25-.15.5-.31.73-.48a3.41,3.41,0,0,0,.44-.3,9.39,9.39,0,0,0,.8-.55c.57-.4,1.11-.8,1.6-1.19h0c.55-.43,1-.86,1.56-1.3a31.74,31.74,0,0,0,2.34-2.27l.23-.24c.16-.16.3-.32.44-.47s.3-.32.43-.47l.81-.91c.35-.41.7-.79,1-1.19s.93-1,1.41-1.46l1-.89.72-.59h0c.34-.28.73-.55,1.09-.82h0l.09-.06.22-.15h0c7.91-4.7,18.61-2.07,34.3,6.74Z" style="fill:#BA68C8"></path><path d="M353.66,381.09l-100,57.76a31.76,31.76,0,0,1-13.31,3.87v32.57l-.38,0h-.16a.78.78,0,0,1-.26,0l-.35,0c-.29,0-.56,0-.85,0-.44,0-.88,0-1.32,0h-.71c-.09,0-.31,0-.41,0h-.1l-.67,0-.68-.05-.07,0-.42-.05-.37,0-.37-.06c-.24,0-.49-.06-.74-.11l-.21,0-.57-.09-.63-.13-.17,0a.79.79,0,0,0-.22-.06l-.33-.07a.79.79,0,0,0-.22,0h0l-.06,0a1.72,1.72,0,0,1-.28-.08s0,0,0,0l-.33-.09-.34-.09-.09,0-.09,0-.15,0-.12,0h0c-.08,0-.17-.05-.24-.08l-.09,0h0s0,0-.06,0-.07,0-.1,0l-.2-.09-.2-.09a1.7,1.7,0,0,1-.24-.09l-.1,0a5.91,5.91,0,0,0-.61-.24l-.28-.13-.26-.14-.34-.16h0a5.54,5.54,0,0,1-.59-.32c-18.68-10.8-76.22-44.22-95.55-55.41V384.62c8.21-4.74,21.39-12.3,29.43-17.06V354.11c0-1.45-1.69-2.42-3.78-3.63-6.22-3.57-11.55-3.45-18.15-5.75V330.81a2.06,2.06,0,0,1,0-.35s0,0,0-.07a1.59,1.59,0,0,1,.06-.38,4.35,4.35,0,0,1,.4-1.2,4.94,4.94,0,0,1,.32-.59.85.85,0,0,1,.14-.21,1.19,1.19,0,0,1,.22-.31l.24-.32c.24-.26.48-.54.75-.78.1-.1.21-.19.33-.29s0,0,.07-.05a4.31,4.31,0,0,1,.4-.32,11.77,11.77,0,0,1,1.42-1l.18-.1.06,0a6.54,6.54,0,0,1,.59-.3,1.09,1.09,0,0,1,.15-.08,18,18,0,0,1,3.31-1.23l.33-.09c.32-.07.62-.16.94-.22l.16,0c.27-.06.54-.1.82-.15.43-.08.86-.11,1.3-.16a21,21,0,0,1,5.54.13h0a18.56,18.56,0,0,1,2,.45h0a12.77,12.77,0,0,1,2.54,1.08l.44.27c.16.1.33.22.53.37l.05.05.07,0a19.55,19.55,0,0,1,2.74,2.15c2.07,2,3.15,4.3,5,6.46l.36.41c.11.13.23.27.36.4.4.43.88.87,1.33,1.28s.72.61,1.12.92c.19.15.38.31.59.45.54.41,1.06.76,1.66,1.14l.45.29c.7.42,1.44.85,2.16,1.24h0a34,34,0,0,0,3.69,1.65l.19.08c.34.13.67.25,1,.35s.41.14.62.19l.7.21h0l.13,0,0,0c.87.24,1.76.43,2.64.59h0q1.33.23,2.73.33h0a22,22,0,0,0,2.46.07h.52c.71,0,1.42-.06,2.13-.13a2,2,0,0,0,.34,0h0c.83-.11,1.65-.21,2.48-.36,1-.17,2-.39,3-.64l.23-.06h.05c.75-.2,1.48-.41,2.22-.66.23-.06.44-.14.66-.22l.19-.06c.85-.3,1.76-.61,2.61-1,.23-.1.51-.19.75-.29l.77-.32.25-.11.34-.15.12-.05.06,0,.24-.11.4-.17,1.17-.55.28-.14.29-.12.29-.14.08,0,.09-.06,8.23-4.41h.06l.05,0,26.33-15.2c4.24,2.44,11.36,6.54,15.53,9s9.42,5.2,13.26,8l.44.32c.27.21.54.41.78.63s.61.53.89.79l.38.38c.12.12.23.25.34.37a6.44,6.44,0,0,1,.55.7,1.2,1.2,0,0,1,.13.21,1.13,1.13,0,0,1,.12.21,1.92,1.92,0,0,1,.14.29,2.9,2.9,0,0,1,.2.87h0c0,1.32-1.39,2.5-4.83,4.49-6.18,3.57-11.26,4.31-17.39,6.44-.5.2-1,.38-1.55.56-.92.35-1.85.73-2.78,1.13l-.61.25c-1.27.57-2.48,1.14-3.65,1.77l-.39.2-.09,0-.18.1c-10.55,5-15.65,15.9-4.21,22.51a19,19,0,0,0,1.8.92,24.72,24.72,0,0,0,2.67,1.06l.87.28.64.18.46.13h0l1,.25h0l1,.22h0c.53.1,1.07.19,1.61.26l.09,0c.88.14,1.75.23,2.66.3h0l1,.07h.08c1.24.07,2.5.06,3.74,0,.78,0,1.56-.06,2.33-.14.31,0,.63-.05.93-.08H263l.26,0,.42-.05h0l.74-.09h.15l.26,0,.74-.11c.49-.07,1-.16,1.46-.26l.25-.05a3.1,3.1,0,0,0,.51-.11c.19,0,.39-.07.58-.12a3.63,3.63,0,0,0,.45-.1h.05a6,6,0,0,0,.64-.15l.19,0c.64-.15,1.27-.33,1.87-.51l.18-.06a1.15,1.15,0,0,0,.29-.08,1.19,1.19,0,0,1,.23-.07h0c.27-.08.53-.17.8-.27l.05,0,.95-.35.54-.2c.3-.11.6-.23.89-.36.78-.31,1.52-.67,2.26-1l.08,0,.44-.23c.2-.1.4-.2.59-.31s.39-.21.58-.32h0c.65-.38,1.29-.79,1.89-1.21l.18-.11c.25-.15.5-.31.73-.48a3.41,3.41,0,0,0,.44-.3,9.39,9.39,0,0,0,.8-.55c.57-.4,1.11-.8,1.6-1.19h0c.55-.43,1-.86,1.56-1.3a31.74,31.74,0,0,0,2.34-2.27l.23-.24c.16-.16.3-.32.44-.47s.3-.32.43-.47l.81-.91c.35-.41.7-.79,1-1.19s.93-1,1.41-1.46l1-.89.72-.59h0c.34-.28.73-.55,1.09-.82h0l.09-.06.22-.15h0c7.91-4.7,18.61-2.07,34.3,6.74Z" style="fill:#fff;opacity:0.5"></path><path d="M173.13,353.62a4.27,4.27,0,0,1-.11.64l0,.13,0,.16c0,.18-.07.38-.13.58a6.59,6.59,0,0,1-.3.73l-.07.13a11.49,11.49,0,0,1-.75,1.36l-.11.14a5.25,5.25,0,0,1-.38.58c-.15.21-.34.43-.53.65l-.13.13-.11.13c-.16.19-.31.37-.5.57a9.86,9.86,0,0,1-.8.78,18.16,18.16,0,0,1-1.66,1.49l-.82.67c-.65.48-1.29,1-2,1.47-.39.28-.8.55-1.23.84-.74.51-1.51,1-2.3,1.51l-.09.06,0,0,0,0-1.89,1.14V354.11c0-1.45-1.69-2.42-3.78-3.63-6.22-3.57-11.55-3.45-18.15-5.75l0-13.9c0,.11,0,.21,0,.31a.28.28,0,0,1,0,.09,5.47,5.47,0,0,0,3.09,4.09,7.4,7.4,0,0,0,.9.47l.13,0,.06,0h0c8.71,4.28,15.24,3.08,24.48,8.51l.53.33.21.13.15.1c.4.26.82.5,1.17.73l.65.49.2.17.15.09c.26.2.54.43.76.63a6.24,6.24,0,0,1,.65.6l.09.07c.22.24.47.48.67.71a7.17,7.17,0,0,1,.57.72,8,8,0,0,1,.88,1.45,7.44,7.44,0,0,1,.28.74,5.3,5.3,0,0,1,.18.74,4.65,4.65,0,0,1,.08.75l0,.13C173.13,353.19,173.15,353.41,173.13,353.62Z" style="fill:#BA68C8"></path><path d="M173.13,353.62a4.27,4.27,0,0,1-.11.64l0,.13,0,.16c0,.18-.07.38-.13.58a6.59,6.59,0,0,1-.3.73l-.07.13a11.49,11.49,0,0,1-.75,1.36l-.11.14a5.25,5.25,0,0,1-.38.58c-.15.21-.34.43-.53.65l-.13.13-.11.13c-.16.19-.31.37-.5.57a9.86,9.86,0,0,1-.8.78,18.16,18.16,0,0,1-1.66,1.49l-.82.67c-.65.48-1.29,1-2,1.47-.39.28-.8.55-1.23.84-.74.51-1.51,1-2.3,1.51l-.09.06,0,0,0,0-1.89,1.14V354.11c0-1.45-1.69-2.42-3.78-3.63-6.22-3.57-11.55-3.45-18.15-5.75l0-13.9c0,.11,0,.21,0,.31a.28.28,0,0,1,0,.09,5.47,5.47,0,0,0,3.09,4.09,7.4,7.4,0,0,0,.9.47l.13,0,.06,0h0c8.71,4.28,15.24,3.08,24.48,8.51l.53.33.21.13.15.1c.4.26.82.5,1.17.73l.65.49.2.17.15.09c.26.2.54.43.76.63a6.24,6.24,0,0,1,.65.6l.09.07c.22.24.47.48.67.71a7.17,7.17,0,0,1,.57.72,8,8,0,0,1,.88,1.45,7.44,7.44,0,0,1,.28.74,5.3,5.3,0,0,1,.18.74,4.65,4.65,0,0,1,.08.75l0,.13C173.13,353.19,173.15,353.41,173.13,353.62Z" style="fill:#fff;opacity:0.2"></path><path d="M240.3,442.7v32.61c-.18,0-.35,0-.53,0s-.59,0-.86,0a25.64,25.64,0,0,1-2.63,0h-.51l-1.35-.09-.07,0-.42-.05a4.67,4.67,0,0,1-.74-.09,7.5,7.5,0,0,1-.95-.14c-.38-.06-.77-.12-1.15-.21l-.45-.11a1.36,1.36,0,0,1-.32-.08,5.29,5.29,0,0,1-.57-.15s0,0,0,0l-.66-.18-.19-.06a5.78,5.78,0,0,1-.7-.24l-.09,0-.42-.16c-.32-.11-.64-.25-1-.39s-.37-.17-.54-.26c-1.77-.82-95-55.05-96.51-55.88v-32.6c21.68,12.46,75,43.49,96.91,56,.37.16.74.33,1.12.47a4.92,4.92,0,0,0,.6.23,22.42,22.42,0,0,0,2.72.8,31.19,31.19,0,0,0,4.87.65A32.39,32.39,0,0,0,240.3,442.7Z" style="fill:#BA68C8"></path><path d="M240.3,442.7v32.61c-.18,0-.35,0-.53,0s-.59,0-.86,0a25.64,25.64,0,0,1-2.63,0h-.51l-1.35-.09-.07,0-.42-.05a4.67,4.67,0,0,1-.74-.09,7.5,7.5,0,0,1-.95-.14c-.38-.06-.77-.12-1.15-.21l-.45-.11a1.36,1.36,0,0,1-.32-.08,5.29,5.29,0,0,1-.57-.15s0,0,0,0l-.66-.18-.19-.06a5.78,5.78,0,0,1-.7-.24l-.09,0-.42-.16c-.32-.11-.64-.25-1-.39s-.37-.17-.54-.26c-1.77-.82-95-55.05-96.51-55.88v-32.6c21.68,12.46,75,43.49,96.91,56,.37.16.74.33,1.12.47a4.92,4.92,0,0,0,.6.23,22.42,22.42,0,0,0,2.72.8,31.19,31.19,0,0,0,4.87.65A32.39,32.39,0,0,0,240.3,442.7Z" style="fill:#fff;opacity:0.30000000000000004"></path><g style="opacity:0.5"><path d="M244.81,319.27l.61.34c4.22,2.44,10.61,6.11,14.44,8.35,1.12.66,2.32,1.34,3.55,2a102.63,102.63,0,0,1,9.66,6c.13.08.26.18.38.27l.09.08c.23.18.45.35.66.53s.59.51.86.76.23.22.33.33l0,0,0,0,.17.18.11.14a4.51,4.51,0,0,1,.48.6l0,.05.07.11.07.13v.05l.05.09,0,.05,0,0a1.83,1.83,0,0,1,.13.56v0c-.09.79-1.36,1.83-4.33,3.56a50.33,50.33,0,0,1-11.83,4.68c-1.73.51-3.52,1-5.41,1.69l-1,.37-.53.19c-.85.33-1.77.7-2.8,1.13l-.05,0c-.2.08-.43.17-.59.25-1.38.61-2.6,1.2-3.73,1.8l-.12.06-.26.14-.07,0-.15.08c-6.63,3.13-11.05,8.49-11.26,13.67-.12,2.91,1,7.11,7,10.55.53.31,1.13.62,1.88,1A24.6,24.6,0,0,0,246,380.3c.33.12.66.22.9.29a4.1,4.1,0,0,0,.5.14l.16,0,.23.07.21.06.17.05h0l.91.22.09,0c.32.08.65.15,1,.21l.11,0h0l1.51.25H252c.81.13,1.68.22,2.74.3h.09l1,.07h.11c.64,0,1.33.05,2.09.05l1.73,0,.58,0c.57,0,1.17-.05,1.76-.11.34,0,.68,0,1-.09h.06l.23,0,.24,0h.38l.07,0,.42-.06h.07a1,1,0,0,0,.23,0l.15,0H265l.75-.11c.46-.06,1-.15,1.48-.26l.29,0,.46-.1H268l.1,0,.46-.1.43-.1.15,0,.1,0c.2,0,.39-.09.59-.15l.11,0c.61-.15,1.25-.32,1.89-.52l.19-.05a1.88,1.88,0,0,0,.39-.12h.11l.13-.07c.28-.08.53-.17.78-.26l.07,0,.05,0,.24-.08.65-.24.29-.11.27-.1.91-.37c.79-.32,1.55-.68,2.32-1.05l.06,0h0l.45-.24c.21-.1.41-.21.59-.31l.38-.2h0l.23-.14c.72-.44,1.34-.84,1.9-1.23l.17-.1c.26-.16.52-.32.77-.49l.45-.32c.29-.18.57-.38.81-.56.45-.32.92-.66,1.38-1h0l.26-.21c.41-.31.78-.62,1.15-.94l.47-.4c.95-.85,1.67-1.54,2.42-2.34l.1-.1.11-.12.44-.48a4.82,4.82,0,0,0,.45-.5c.28-.31.56-.61.81-.9l1.05-1.17c.44-.49.91-1,1.36-1.41s.61-.58.92-.85l.06-.05.64-.52.06-.05h0l1-.75.08-.06.17-.12a15.82,15.82,0,0,1,8.29-2.16c6.25,0,14.2,2.84,25,8.92l21.35,12.32L253.13,438a30.56,30.56,0,0,1-11.89,3.65l-1,.08c-.86.06-1.73.1-2.58.1-.57,0-1.14,0-1.7,0a29.4,29.4,0,0,1-4.69-.61,22.08,22.08,0,0,1-2.64-.78,2.92,2.92,0,0,1-.49-.19l0,0h0c-.27-.1-.55-.23-.84-.36l-.17-.07c-13.05-7.43-37.51-21.61-59.1-34.12-14.11-8.17-27.47-15.91-36.31-21L138,381c7.41-4.27,15.82-9.12,21.62-12.56l1.9-1.13.13-.1h0c.76-.48,1.56-1,2.32-1.53l1.27-.86c.36-.26.71-.53,1-.79l.92-.68,0,0,0,0,.26-.21.55-.45a19.49,19.49,0,0,0,1.72-1.54c.27-.25.59-.54.83-.81l.36-.41.19-.21.08-.1.1-.1,0,0,0,0,.11-.14c.15-.18.3-.36.42-.53a4.88,4.88,0,0,0,.44-.64l.07-.11,0,0v0a10.73,10.73,0,0,0,.81-1.47l0-.09a5.72,5.72,0,0,0,.31-.69l.05-.13,0-.07v-.07c0-.15.07-.31.1-.45l0-.13,0-.15v-.09l0-.09a5.4,5.4,0,0,0,.12-.74,5,5,0,0,0,0-.55v-.56a4.45,4.45,0,0,0-.08-.68,6.8,6.8,0,0,0-.2-.84v0l0-.05a1.43,1.43,0,0,1-.08-.22,3.41,3.41,0,0,0-.24-.58,9,9,0,0,0-1-1.62l-.1-.14a6.91,6.91,0,0,0-.53-.65c-.14-.16-.3-.32-.46-.49l-.22-.23,0,0,0,0L171,347a8.3,8.3,0,0,0-.69-.64,9.83,9.83,0,0,0-.86-.7l-.11-.07-.2-.16-.16-.12-.54-.4-.86-.54-.3-.18-.11-.09-.07-.05-.07,0,0,0h0l-.05,0-.07,0-.23-.14-.3-.19a44.94,44.94,0,0,0-13.8-5.05A45.84,45.84,0,0,1,141.85,335l-.06,0-.07-.05-.13,0-.05,0-.24-.11c-.2-.1-.4-.19-.56-.29a4.62,4.62,0,0,1-2.59-3.3v-.38a1.09,1.09,0,0,1,0-.18l.05-.31v-.15a3.59,3.59,0,0,1,.3-.91l0-.07c.08-.16.15-.3.23-.43l0,0v0a.25.25,0,0,1,0-.07l.07-.07.06-.13.06-.07,0-.06c.09-.1.16-.2.25-.32l.06-.06a6.79,6.79,0,0,1,.58-.61l.22-.19h0l.15-.14a2.34,2.34,0,0,1,.3-.25l0,0,0,0a9.06,9.06,0,0,1,1-.69l.32-.2h0l.08,0,.07,0,0,0a5.39,5.39,0,0,1,.48-.25l0,0,0,0,.08,0a17.8,17.8,0,0,1,3.13-1.17l.23-.06h.08l.24-.06.62-.15.18,0,.54-.1.27-.05.75-.1.48-.05a19.41,19.41,0,0,1,2.16-.12,18.68,18.68,0,0,1,3.12.26h.08a13.9,13.9,0,0,1,1.76.41l.08,0a11.82,11.82,0,0,1,2.26.95l0,0,.38.24.43.28.1.1.14.08h0a17,17,0,0,1,2.57,2,20.62,20.62,0,0,1,2.83,3.55,34.67,34.67,0,0,0,2.13,2.87,1.54,1.54,0,0,1,.17.19l.17.18a5.57,5.57,0,0,0,.39.43c.37.4.83.84,1.4,1.35.33.29.71.6,1.17,1l.23.17a4.5,4.5,0,0,0,.37.28c.52.4,1.05.76,1.69,1.17.17.11.34.22.52.32.74.45,1.49.89,2.19,1.25l.22.11h0a32.64,32.64,0,0,0,3.55,1.58l.08,0,.05,0,0,0h.05c.36.14.7.26,1,.37l.66.2.22.07.52.15.09,0h0l.05,0c.81.22,1.67.42,2.72.6a24.94,24.94,0,0,0,2.85.35h0c.61.05,1.23.08,1.91.08h1.18c.61,0,1.28-.05,2.11-.12a2.56,2.56,0,0,0,.37,0h.07l.35,0c.71-.09,1.45-.19,2.17-.33,1.11-.19,2.17-.41,3.1-.65l.1,0h0l.12,0c.73-.2,1.48-.4,2.24-.66a5.62,5.62,0,0,0,.58-.19l.1,0,.21-.07.25-.09c.8-.28,1.62-.57,2.4-.9l.27-.1c.18-.06.35-.13.51-.2s.41-.17.63-.25l.11-.05h0l0,0,.2-.09c.11,0,.22-.1.33-.15l.26-.07.08-.08,0,0,.08,0,.15-.06.24-.1,1.19-.56.26-.13L210,339l.14-.06.33-.16h.05l0,0,.08,0h0l34.18-19.4m0-1.12-34.67,19.67-.1.05-.07,0-.29.14a2.52,2.52,0,0,1-.29.12l-.28.14-1.18.55-.39.17-.24.11-.06,0-.13,0a2.11,2.11,0,0,1-.34.16l-.24.12-.77.31c-.24.11-.51.19-.76.29-.84.36-1.75.67-2.6,1l-.19.06c-.22.08-.43.16-.66.22-.74.25-1.48.45-2.22.66h-.05l-.23.06c-.94.25-2,.46-3,.64-.82.15-1.65.25-2.48.36h0a2,2,0,0,1-.34,0c-.71.05-1.43.1-2.13.12H190c-.63,0-1.24,0-1.85-.09h0a20.36,20.36,0,0,1-2.73-.33,25.83,25.83,0,0,1-2.64-.58l0,0-.13,0h0l-.7-.2-.62-.2c-.34-.1-.67-.22-1-.35l-.19-.08a32.21,32.21,0,0,1-3.69-1.66h0c-.72-.38-1.46-.81-2.15-1.23a5.35,5.35,0,0,1-.47-.29c-.59-.38-1.11-.73-1.65-1.13-.21-.15-.4-.32-.59-.46-.4-.31-.77-.61-1.11-.92a18.14,18.14,0,0,1-1.34-1.28l-.36-.4-.37-.41c-1.84-2.16-2.93-4.49-5-6.46a19.81,19.81,0,0,0-2.75-2.15l-.06,0-.05-.05a5,5,0,0,0-.53-.36l-.44-.29a13.83,13.83,0,0,0-2.55-1.07h0a15.76,15.76,0,0,0-1.94-.44h0a19.89,19.89,0,0,0-3.28-.27,21.43,21.43,0,0,0-2.27.12c-.43.06-.86.09-1.29.17l-.82.14-.16,0c-.31.06-.62.15-.94.23a1.94,1.94,0,0,0-.33.07,17.92,17.92,0,0,0-3.3,1.24l-.16.08a4.75,4.75,0,0,0-.59.31l0,0-.19.1a13.73,13.73,0,0,0-1.43,1,2.92,2.92,0,0,0-.38.32s-.05,0-.08.06a2.22,2.22,0,0,0-.33.28,6.78,6.78,0,0,0-.74.78l-.26.32a1.88,1.88,0,0,0-.21.31,1.37,1.37,0,0,0-.15.21c-.12.2-.22.4-.32.6a4.54,4.54,0,0,0-.39,1.18c0,.12,0,.28-.06.39s0,.05,0,.07a2,2,0,0,0,0,.34v.43a5.44,5.44,0,0,0,3.08,4.09,8.45,8.45,0,0,0,.91.47l.13,0,.06,0,.06,0c8.69,4.27,15.23,3.07,24.47,8.5l.54.33a1.16,1.16,0,0,0,.2.13l.15.1,1.16.73.66.49.2.17.15.09c.27.2.54.43.76.63a6.27,6.27,0,0,1,.66.6l.08.08c.23.23.47.47.67.7a7.62,7.62,0,0,1,.58.72,7.91,7.91,0,0,1,.86,1.45,7.65,7.65,0,0,1,.3.74,7.12,7.12,0,0,1,.17.74,4.78,4.78,0,0,1,.08.75l0,.13c0,.21,0,.44,0,.65a4.27,4.27,0,0,1-.11.64l0,.13,0,.15c0,.19-.07.39-.12.6s-.19.48-.31.72l-.07.12a10.86,10.86,0,0,1-.75,1.37l-.11.14a4,4,0,0,1-.39.59c-.14.2-.33.41-.51.64l-.14.13-.11.13c-.16.19-.31.37-.5.57a9.86,9.86,0,0,1-.8.78,19.59,19.59,0,0,1-1.66,1.49l-.82.67c-.65.48-1.29,1-2,1.47-.38.27-.79.56-1.22.84-.74.51-1.51,1-2.31,1.51l-.08.05,0,0,0,0-1.9,1.14c-8,4.76-21.22,12.31-29.42,17.06v0c21.68,12.46,75,43.48,96.9,56a12.17,12.17,0,0,0,1.12.48,3.69,3.69,0,0,0,.6.23,20.76,20.76,0,0,0,2.72.8,30.18,30.18,0,0,0,4.87.64c.58,0,1.16.05,1.75.05.88,0,1.77,0,2.66-.1h0a31.76,31.76,0,0,0,13.3-3.87l100.05-57.76-22.81-13.17c-10.53-5.91-18.81-9-25.51-9a16.77,16.77,0,0,0-8.79,2.3h0a1.14,1.14,0,0,1-.23.15l-.08.06h0c-.36.27-.74.55-1.08.82h0c-.26.19-.5.4-.73.59s-.66.6-1,.9c-.48.46-1,1-1.41,1.46s-.7.77-1,1.17-.53.61-.81.92c-.13.15-.28.31-.43.46s-.28.32-.44.48l-.22.24c-.75.79-1.46,1.47-2.35,2.27-.52.44-1,.87-1.56,1.29h0c-.49.39-1,.78-1.6,1.19a7.54,7.54,0,0,1-.8.55l-.43.31-.74.47-.18.11c-.6.42-1.24.83-1.88,1.22h0l-.59.31c-.19.11-.39.21-.59.31a4.53,4.53,0,0,1-.44.23l-.08,0c-.74.36-1.49.72-2.25,1-.31.13-.6.25-.9.36l-.54.21c-.32.1-.63.22-.95.34l-.06,0c-.26.1-.52.19-.79.27h0l-.23.07a.84.84,0,0,1-.29.08l-.17.05c-.62.19-1.25.36-1.88.52l-.19,0c-.21.07-.42.1-.64.15h-.06a3.48,3.48,0,0,1-.44.1l-.58.13-.51.1-.26.05c-.47.1-1,.19-1.45.26l-.73.1-.28,0h-.14l-.73.1h-.05l-.43,0-.25,0h-.08c-.29,0-.61.07-.92.08-.77.08-1.55.1-2.33.14l-1.68,0c-.69,0-1.38,0-2.06,0h-.08l-1-.08h0c-.91-.07-1.78-.15-2.66-.29l-.09,0c-.54-.08-1.07-.16-1.61-.26h0c-.34-.07-.68-.14-1-.23h0c-.34-.07-.67-.15-1-.24h0l-.46-.13c-.21-.06-.44-.11-.64-.18s-.58-.17-.87-.28a22.09,22.09,0,0,1-2.67-1.05c-.6-.28-1.23-.6-1.8-.94-11.44-6.59-6.33-17.52,4.21-22.5l.18-.09.09-.05.38-.21c1.18-.62,2.39-1.19,3.66-1.76l.61-.26c.93-.39,1.86-.77,2.79-1.12l1.54-.55c6.13-2.14,11.21-2.88,17.39-6.45,3.44-2,4.84-3.17,4.83-4.49h0a2.64,2.64,0,0,0-.21-.87.93.93,0,0,0-.13-.29c0-.06-.07-.14-.12-.22a1.76,1.76,0,0,1-.12-.2,5.72,5.72,0,0,0-.56-.7c-.11-.12-.21-.25-.34-.37l-.38-.38c-.28-.26-.58-.54-.89-.8l-.78-.62-.44-.32c-3.84-2.82-9.11-5.58-13.26-8s-11.29-6.53-15.53-9Z" style="fill:#fff"></path></g></g></g><g id="freepik--Blocks--inject-33"><g id="freepik--blocks--inject-33"><g id="freepik--Block--inject-33"><path d="M330.31,278.51l28.32,16.35a11.35,11.35,0,0,0,10.28,0l28.32-16.35a11.37,11.37,0,0,0,5.14-8.91V236.91a11.37,11.37,0,0,0-5.14-8.91l-28.32-16.35a11.35,11.35,0,0,0-10.28,0L330.31,228a11.37,11.37,0,0,0-5.14,8.91V269.6A11.37,11.37,0,0,0,330.31,278.51Z" style="fill:#37474f"></path><path d="M397.23,233.94l-28.32,16.35a11.35,11.35,0,0,0-5.14,8.9v32.7c0,3.28,2.3,4.61,5.14,3l28.32-16.35a11.37,11.37,0,0,0,5.14-8.91V236.91C402.37,233.63,400.07,232.3,397.23,233.94Z" style="fill:#263238"></path><path d="M330.31,233.94l28.32,16.35a11.35,11.35,0,0,0,10.28,0l28.32-16.35c2.84-1.64,2.84-4.3,0-5.94l-28.32-16.35a11.35,11.35,0,0,0-10.28,0L330.31,228C327.47,229.64,327.47,232.3,330.31,233.94Z" style="fill:#455a64"></path><path d="M330.31,233.94l28.32,16.35a11.35,11.35,0,0,1,5.14,8.9v32.7c0,3.28-2.3,4.61-5.14,3l-28.32-16.35a11.37,11.37,0,0,1-5.14-8.91V236.91C325.17,233.63,327.47,232.3,330.31,233.94Z" style="fill:#37474f"></path></g><g id="freepik--block--inject-33"><path d="M381.37,308l28.31,16.35a11.38,11.38,0,0,0,10.29,0L448.28,308a11.38,11.38,0,0,0,5.15-8.91V266.38a11.38,11.38,0,0,0-5.15-8.91L420,241.12a11.38,11.38,0,0,0-10.29,0l-28.31,16.35a11.37,11.37,0,0,0-5.14,8.91v32.69A11.37,11.37,0,0,0,381.37,308Z" style="fill:#BA68C8"></path><path d="M381.37,308l28.31,16.35a11.38,11.38,0,0,0,10.29,0L448.28,308a11.38,11.38,0,0,0,5.15-8.91V266.38a11.38,11.38,0,0,0-5.15-8.91L420,241.12a11.38,11.38,0,0,0-10.29,0l-28.31,16.35a11.37,11.37,0,0,0-5.14,8.91v32.69A11.37,11.37,0,0,0,381.37,308Z" style="opacity:0.25"></path><path d="M448.28,263.41,420,279.76a11.35,11.35,0,0,0-5.14,8.9v32.7c0,3.28,2.3,4.61,5.14,3L448.28,308a11.38,11.38,0,0,0,5.15-8.91V266.38C453.43,263.1,451.12,261.77,448.28,263.41Z" style="fill:#BA68C8"></path><path d="M448.28,263.41,420,279.76a11.35,11.35,0,0,0-5.14,8.9v32.7c0,3.28,2.3,4.61,5.14,3L448.28,308a11.38,11.38,0,0,0,5.15-8.91V266.38C453.43,263.1,451.12,261.77,448.28,263.41Z" style="fill:#fff;opacity:0.1"></path><path d="M381.37,263.41l28.31,16.35a11.38,11.38,0,0,0,10.29,0l28.31-16.35c2.84-1.64,2.84-4.3,0-5.94L420,241.12a11.38,11.38,0,0,0-10.29,0l-28.31,16.35C378.53,259.11,378.53,261.77,381.37,263.41Z" style="fill:#BA68C8"></path><path d="M381.37,263.41l28.31,16.35a11.36,11.36,0,0,1,5.15,8.9v32.7c0,3.28-2.31,4.61-5.15,3L381.37,308a11.37,11.37,0,0,1-5.14-8.91V266.38C376.23,263.1,378.53,261.77,381.37,263.41Z" style="fill:#BA68C8"></path><path d="M381.37,263.41l28.31,16.35a11.36,11.36,0,0,1,5.15,8.9v32.7c0,3.28-2.31,4.61-5.15,3L381.37,308a11.37,11.37,0,0,1-5.14-8.91V266.38C376.23,263.1,378.53,261.77,381.37,263.41Z" style="opacity:0.1"></path></g><g id="freepik--block--inject-33"><path d="M330.31,229.35l79.37,46a11.38,11.38,0,0,0,10.29,0l28.31-16.34a11.4,11.4,0,0,0,5.15-8.91v-32.7a11.38,11.38,0,0,0-5.15-8.91l-79.37-46a11.35,11.35,0,0,0-10.28,0l-28.32,16.34a11.37,11.37,0,0,0-5.14,8.91v32.69A11.35,11.35,0,0,0,330.31,229.35Z" style="fill:#BA68C8"></path><path d="M448.28,214.47,420,230.82a11.37,11.37,0,0,0-5.14,8.91v32.69c0,3.28,2.3,4.61,5.14,3l28.31-16.34a11.4,11.4,0,0,0,5.15-8.91v-32.7C453.43,214.16,451.12,212.83,448.28,214.47Z" style="fill:#BA68C8"></path><path d="M448.28,214.47,420,230.82a11.37,11.37,0,0,0-5.14,8.91v32.69c0,3.28,2.3,4.61,5.14,3l28.31-16.34a11.4,11.4,0,0,0,5.15-8.91v-32.7C453.43,214.16,451.12,212.83,448.28,214.47Z" style="fill:#fff;opacity:0.5"></path><path d="M330.31,184.78l79.37,46a11.38,11.38,0,0,0,10.29,0l28.31-16.35c2.84-1.64,2.84-4.3,0-5.94l-79.37-46a11.35,11.35,0,0,0-10.28,0l-28.32,16.34C327.47,180.48,327.47,183.14,330.31,184.78Z" style="fill:#BA68C8"></path><path d="M330.31,184.78l79.37,46a11.38,11.38,0,0,0,10.29,0l28.31-16.35c2.84-1.64,2.84-4.3,0-5.94l-79.37-46a11.35,11.35,0,0,0-10.28,0l-28.32,16.34C327.47,180.48,327.47,183.14,330.31,184.78Z" style="fill:#fff;opacity:0.1"></path><path d="M330.31,184.78l79.37,46a11.38,11.38,0,0,1,5.15,8.91v32.69c0,3.28-2.31,4.61-5.15,3l-79.37-46a11.35,11.35,0,0,1-5.14-8.91V187.75C325.17,184.47,327.47,183.14,330.31,184.78Z" style="fill:#BA68C8"></path><path d="M330.31,184.78l79.37,46a11.38,11.38,0,0,1,5.15,8.91v32.69c0,3.28-2.31,4.61-5.15,3l-79.37-46a11.35,11.35,0,0,1-5.14-8.9v-32.7C325.17,184.47,327.47,183.14,330.31,184.78Z" style="fill:#fff;opacity:0.30000000000000004"></path></g><g id="freepik--block--inject-33"><polygon points="340.63 187.19 377.21 166.12 360.54 156.5 340.63 167.88 340.63 187.19"></polygon><path d="M453.43,160.29V202a11.4,11.4,0,0,1-5.14,8.91L420,227.24a11.55,11.55,0,0,1-9.38.43l-.52-.22-.39-.21-10.33-6v0c0-18.72-13.14-41.48-29.36-50.85s-29.28-1.81-29.35,16.81l-10.32-6a11.37,11.37,0,0,1-5.15-8.91V130.6a5.07,5.07,0,0,1,0-.55v0a1,1,0,0,1,0-.25h0a11.42,11.42,0,0,1,5.09-8.08l28.31-16.34a11.29,11.29,0,0,1,10.28,0l79.38,46A11.4,11.4,0,0,1,453.43,160.29Z" style="fill:#37474f"></path><path d="M448.28,157.32,420,173.67a11.35,11.35,0,0,0-5.14,8.9v41.7c0,3.28,2.3,4.61,5.14,3l28.31-16.35a11.38,11.38,0,0,0,5.15-8.91V160.29C453.43,157,451.12,155.68,448.28,157.32Z" style="fill:#263238"></path><path d="M330.31,127.63l79.37,46a11.38,11.38,0,0,0,10.29,0l28.31-16.35c2.84-1.64,2.84-4.3,0-5.94l-79.37-46a11.35,11.35,0,0,0-10.28,0l-28.32,16.35C327.47,123.33,327.47,126,330.31,127.63Z" style="fill:#455a64"></path><path d="M414.82,182.57v41.69c0,2.34-1.15,3.68-2.84,3.68l-.33,0a4,4,0,0,1-1.06-.25l-.52-.22-.39-.21-10.33-6v0c0-18.72-13.14-41.48-29.36-50.85s-29.28-1.81-29.35,16.81l-10.32-6a11.37,11.37,0,0,1-5.15-8.91V130.6a5.07,5.07,0,0,1,0-.55v0a1,1,0,0,1,0-.25h0a4.4,4.4,0,0,1,.13-.65l.09-.29a1.6,1.6,0,0,1,.1-.23,2.31,2.31,0,0,1,.24-.47,1.18,1.18,0,0,1,.13-.18,1.68,1.68,0,0,1,.24-.28,2.19,2.19,0,0,1,.61-.45,1.07,1.07,0,0,1,.22-.1l.23-.09h0a.78.78,0,0,1,.23,0l.26,0a2.75,2.75,0,0,1,.64,0l.4.06a5.77,5.77,0,0,1,1.54.62l79.36,46A11.37,11.37,0,0,1,414.82,182.57Z" style="fill:#37474f"></path></g><g id="freepik--block--inject-33"><path d="M448.39,142,412.24,73.07a7.63,7.63,0,0,0-10.87-3.27L363.46,91.68a10.59,10.59,0,0,0-.92.62l-29.9,22.44c-4.13,3.09-3.85,7.69.62,10.27l73.49,42.43c2,1.17,3.48,1.48,4.24,1s37.13-21.44,37.89-21.88C449.8,146.07,449.7,144.45,448.39,142Z" style="fill:#BA68C8"></path><path d="M448.39,142,412.24,73.07a7.63,7.63,0,0,0-10.87-3.27L363.46,91.68a10.59,10.59,0,0,0-.92.62l-29.9,22.44c-4.13,3.09-3.85,7.69.62,10.27l73.49,42.43c2,1.17,3.48,1.48,4.24,1s37.13-21.44,37.89-21.88C449.8,146.07,449.7,144.45,448.39,142Z" style="fill:#fff;opacity:0.2"></path><path d="M412.27,73.13l0-.06a7.63,7.63,0,0,0-10.87-3.27L363.46,91.68a10.59,10.59,0,0,0-.92.62l-.43.32,8.12,4.78Z" style="fill:#fff;opacity:0.35000000000000003"></path><path d="M332.64,114.74l29.9-22.44A7.68,7.68,0,0,1,374.34,95l36.15,68.88c2.4,4.56.72,6.17-3.74,3.6L333.26,125C328.79,122.43,328.51,117.83,332.64,114.74Z" style="fill:#BA68C8"></path><path d="M332.64,114.74l29.9-22.44A7.68,7.68,0,0,1,374.34,95l36.15,68.88c2.4,4.56.72,6.17-3.74,3.6L333.26,125C328.79,122.43,328.51,117.83,332.64,114.74Z" style="fill:#fff;opacity:0.35000000000000003"></path></g></g></g><g id="freepik--Character--inject-33"><g id="freepik--character--inject-33"><path id="freepik--shadow--inject-33" d="M165.14,279.57c19.28,11.12,19.28,29.16,0,40.29s-50.52,11.13-69.79,0-19.27-29.17,0-40.29S145.87,268.44,165.14,279.57Z" style="fill:#BA68C8;opacity:0.1"></path><g id="freepik--Bottom--inject-33"><path d="M107.73,168.09c-.71,6.13-.63,12.37-.88,18.71-.51,13.14-.82,23-2,39.1a121.39,121.39,0,0,0-4.47,21.65c-1,8.13-1.44,17.85-3,27.39l-1.44,5c.92,6.14,9.86,8.35,11.17,4.77,0,0,13.06-35.23,17.24-46.71a248.49,248.49,0,0,0,9-32L137.48,230s-1.37,6.34.28,17.44c1.3,8.71,6.27,24.15,6.17,34,0,1.32,1.65,4.22,5.26,4.87s6.7-3.17,6.76-3.7c.14-1.24,2.16-39.36,2.73-48.46,1.24-20-.12-53.2-2.06-67.21Z" style="fill:#ffa8a7"></path><path d="M159.82,215.09c-.23-9.56-1.4-38-2.72-48.57l-49.67,1.18-3.12,57.7a107.18,107.18,0,0,0-3.24,13.11c-1.42,7.66-2.53,26-2.53,26s1.28,3.08,6.11,4.66a11.79,11.79,0,0,0,8.82-.68s5.58-15.37,6.91-18.59c1.81-4.41,4.22-10.87,6.74-18.53s6.06-21.58,6.06-21.58L137,230c-.86,5.36-.37,15,1.12,22.6s3.4,16.27,3.4,16.27,2.79,1.53,8.54,1.26,7.33-2.53,7.33-2.53,1.94-27.94,2.27-38S159.82,215.09,159.82,215.09Z" style="fill:#455a64"></path><path d="M133.18,209.76c1.66-7.38,3.9-19.29,3.9-19.29s7.55-.11,11.3-5.38c-2.07,5.58-9.14,7.95-9.14,7.95l-3.77,18L137,230Z" style="fill:#37474f"></path><path d="M176.32,300.78a3.57,3.57,0,0,1-.74,3.58c-1.46,1.21-5.7,3.15-11.24,2.33s-7.07-2-9.26-3.88-4.19-3.9-6.69-4.5c-2.33-.56-5.86-1.57-6.6-2.31s-.56-3.94-.56-3.94Z" style="fill:#263238"></path><path d="M143.63,278.19a1,1,0,0,0-1,.75c-.18.88-.42,3.45-.82,4.89a36.6,36.6,0,0,0-.54,9.33c.27,1.66,5.08,2.77,7.49,3.75a22.77,22.77,0,0,1,6.72,4.44,17.16,17.16,0,0,0,10.2,4c4.28.05,9.13-1.24,10.28-3.21,1.41-2.43,1.66-4.78-4.63-7.85-1.2-.59-4.86-2.84-6.28-3.77a27.45,27.45,0,0,1-4.36-3.45,16.88,16.88,0,0,1-2.48-2.92,8.2,8.2,0,0,1-.75-1.95,18.63,18.63,0,0,1-.54-2.11,1.47,1.47,0,0,0-.55-1.05,1.34,1.34,0,0,0-.82-.09,23.31,23.31,0,0,0-4.29.87,2.64,2.64,0,0,0-1.45.89,2.29,2.29,0,0,0-.31,1.18,8.38,8.38,0,0,1-.06,1.23.63.63,0,0,1-.17.4c-.22.22-.56,0-.74-.14a16.11,16.11,0,0,1-1.67-2.09c-.3-.38-1.64-.64-2-.94a10.21,10.21,0,0,1-1.08-.73C143.44,279.19,143.64,278.7,143.63,278.19Z" style="fill:#37474f"></path><path d="M155.52,301.35a33.6,33.6,0,0,0-2.9-2.33h0s6.72,2.81,9.78.81c2-1.29,1.07-2.93,1-3.44s4.8-2.64,6.69-2.82h0c.52.3,1,.54,1.24.68,6.29,3.07,6,5.42,4.63,7.85-1.15,2-4.67,3.45-10.21,3.34A17.65,17.65,0,0,1,155.52,301.35Z" style="fill:#455a64"></path><path d="M162.94,294.87c3.92,1.66,2.22,2.36,1.11,2.5s-6.62-3.18-10.61-6.47c-4.16-3.44-7.78-7-9.33-8.31-.57-.47-1.19-1-1.75-1.58.13-.87.23-1.66.31-2.07.16-.74,1-.94,1-.94l.16,1.43a3.23,3.23,0,0,0,1.09.77,5.15,5.15,0,0,1,1.94,1.05,16.11,16.11,0,0,0,1.67,2.09C151.93,287.79,159,293.21,162.94,294.87Z" style="fill:#263238"></path><path d="M163.78,296.78a.38.38,0,0,1-.24-.09.39.39,0,0,1,0-.55,9.43,9.43,0,0,1,7.3-2.71.39.39,0,0,1,.34.43.38.38,0,0,1-.44.34,8.7,8.7,0,0,0-6.6,2.45A.37.37,0,0,1,163.78,296.78Z" style="fill:#f0f0f0"></path><path d="M160.37,294.77a.4.4,0,0,1-.25-.09.38.38,0,0,1-.05-.55,9.41,9.41,0,0,1,7.22-2.88.39.39,0,0,1,.35.43.39.39,0,0,1-.43.35,8.71,8.71,0,0,0-6.54,2.6A.39.39,0,0,1,160.37,294.77Z" style="fill:#f0f0f0"></path><path d="M157.22,292.5a.46.46,0,0,1-.24-.1.38.38,0,0,1,0-.55,9.43,9.43,0,0,1,7.3-2.71.4.4,0,0,1,.34.44.39.39,0,0,1-.44.33,8.7,8.7,0,0,0-6.6,2.45A.41.41,0,0,1,157.22,292.5Z" style="fill:#f0f0f0"></path><path d="M154.45,290.44a.44.44,0,0,1-.25-.08.4.4,0,0,1-.07-.55,9.39,9.39,0,0,1,7.17-3,.39.39,0,0,1,.36.42.4.4,0,0,1-.42.36,8.72,8.72,0,0,0-6.49,2.72A.42.42,0,0,1,154.45,290.44Z" style="fill:#f0f0f0"></path><path d="M151.46,288a.37.37,0,0,1-.24-.08.4.4,0,0,1-.08-.55c1.5-2,4.94-3.3,7.85-3a.39.39,0,1,1-.06.78c-2.63-.23-5.84,1-7.16,2.74A.39.39,0,0,1,151.46,288Z" style="fill:#f0f0f0"></path><path d="M106.5,303.5c-.66,3.95-1.59,6.54-3.34,8.75s-4.67,2.72-7.49,1.81-6.32-3-6.8-6.53-.07-5.83,1-9.47Z" style="fill:#263238"></path><path d="M97.4,274.94c-1,.22-2.52,5.32-3.75,10.61-1.32,5.68-2.58,7.32-3.71,12-1.3,5.31-1.08,7.14.6,10.55S99,315.22,103,310.85c3.25-3.56,3.64-7.16,3.92-12.55a106.81,106.81,0,0,1,1.35-12.77c.64-4,2.51-7.5,1.52-8-.14.58-1.67,4.84-2.42,4.29-.35-.1-.35-.67-.17-1.7a1.7,1.7,0,0,0-.19-1.33,2.28,2.28,0,0,0-1.26-.65c-1.15-.31-2.73-.78-3.91-1-.69-.11-.3-.09-1-.19a6.67,6.67,0,0,0-2.61-.12c-.39.15-.46.48-.59.85s-.28.89-.44,1.25c-.07.15-.32.44-.48.41s-.29-.73-.23-1,.07-.79.13-1.15S97.19,275.87,97.4,274.94Z" style="fill:#37474f"></path><path d="M90.37,295.7c-.2.77-1.27,5.56.13,6.6s2.82-2.83,2.82-2.83,3.9-.79,9.2,1.91c-.37.81.2,3.62,1.78,3.16s2.59-5.7,2.61-5.77c-.3,5.16-.74,8.62-3.9,12.08-4,4.37-10.79.62-12.47-2.78s-1.9-5.24-.6-10.55C90.07,297,90.21,296.18,90.37,295.7Z" style="fill:#455a64"></path><path d="M93.72,299.85c-.22,1.94-2,1.12-2-1.63,0-4.12,1.48-8,2-12.67,1.23-5.29,2.55-10.62,3.75-10.61-.14.92-.65,3-.65,3-.07.39-.33,1.28-.33,1.28-.78,4-2.38,8.56-2.63,12.7C93.57,295.58,93.94,297.91,93.72,299.85Z" style="fill:#263238"></path><path d="M101.88,301.28c.59-1.88,1.3-2.37,2.09-5.95s3-9.78,4.23-13.63c.52-1.48,1.59-4.16,1.6-4.2.72.39.53,2.44-.31,4.81s-1.37,3.83-2,6.12c-1.49,4.54-2.15,9.44-3.09,12.05S101.3,303.15,101.88,301.28Z" style="fill:#263238"></path><path d="M102.34,301.41l-.15-.06a14.83,14.83,0,0,0-9.07-1.61.44.44,0,0,1-.51-.34.42.42,0,0,1,.36-.48,15.58,15.58,0,0,1,9.7,1.73.39.39,0,0,1,.13.57A.46.46,0,0,1,102.34,301.41Z" style="fill:#f0f0f0"></path><path d="M103.94,297.65l-.15,0a19.49,19.49,0,0,0-10.57-2,.45.45,0,0,1-.5-.35.43.43,0,0,1,.38-.47,20.32,20.32,0,0,1,11.15,2.08.4.4,0,0,1,.15.57A.46.46,0,0,1,103.94,297.65Z" style="fill:#f0f0f0"></path><path d="M92.93,292.42a.43.43,0,0,1-.34-.31.41.41,0,0,1,.33-.5c5.5-1.27,12.27,1.62,12.48,1.75a.38.38,0,0,1,.13.57.47.47,0,0,1-.61.12s-6.68-2.82-11.8-1.64A.41.41,0,0,1,92.93,292.42Z" style="fill:#f0f0f0"></path><path d="M94.15,289a.42.42,0,0,1-.34-.3.42.42,0,0,1,.32-.51c6.06-1.5,11.78,2,12,2.11a.4.4,0,0,1,.1.58.46.46,0,0,1-.62.09s-5.59-3.37-11.23-2A.46.46,0,0,1,94.15,289Z" style="fill:#f0f0f0"></path><path d="M95,284.79a.4.4,0,0,1,0-.8c5.69-1.49,11.83,2.09,12,2.24a.38.38,0,0,1,.1.57.44.44,0,0,1-.61.1s-6-3.5-11.3-2.11A.45.45,0,0,1,95,284.79Z" style="fill:#ebebeb"></path></g><g id="freepik--Top--inject-33"><path d="M190.09,162.75c-2.28-.87-5.84-2.2-15.27-5.39-7.14-2.41-7.8-2.7-11.74-6.34a72.08,72.08,0,0,1-8.4-8.79c-3.68-4.67-4.27-6.78-5.52-11.23-.51-1.83.69-14.68.88-18.81,5.3,1.24,12.3,12.14,14,14.51s11.08,14.72,11.08,14.72,16.45,9.79,19.86,11c4.14,1.47,5.5-.19,9.72,0,2.15.12,4.22.79,6.41.77.53,0,1.25-.06,1.39.59a1.4,1.4,0,0,1-.22.93c-.73,1.2-2.43,1.59-3.82,1.77-1.18.16-2.13-.17-3.31,0-.42.06-.7.55.46,1.17a17.29,17.29,0,0,0,2.71,1,31.49,31.49,0,0,0,5.85,1.29c.73.09,2,.12,2.68.25,1.09.19,3.72.64,3.4,2.26-.1.47-1.11.53-1.58.62-.67.12-1.12.15-1.12.15a1.57,1.57,0,0,1-.27,1,4.11,4.11,0,0,1-2,1,1.69,1.69,0,0,1-.79,1.2,4.69,4.69,0,0,1-1.79.88,4.12,4.12,0,0,1-.74.87,6.06,6.06,0,0,1-4.79,1.09c-2.31-.26-4.31-.47-5.93-.76-1-.17-2.55-1.28-4-2.14A42.72,42.72,0,0,0,190.09,162.75Z" style="fill:#ffa8a7"></path><path d="M149.69,111.61c-.38,5.71-1.88,24.53,3.15,29.88s6.31,6.93,9.89,10.36c2.83,2.7,4.18,3.94,12.59,6.71,6.11,2,14.7,4.54,14.7,4.54a13.06,13.06,0,0,1,1.12-6.48c1.55-3.81,2.83-4.89,2.83-4.89l-18.54-10.57s-8.16-10.65-11.62-15.61C159.75,119.74,156,113.11,149.69,111.61Z" style="fill:#455a64"></path><path d="M107.37,146.79c-.07-5.27-1.62-19.32-1.73-21.58-.23-4.56,1.22-9.68,3.75-10.55l9.55-2.4s17.82-1.86,20.37-2.06a32.89,32.89,0,0,1,10.44,1.43c3.05,2.61,6,8.42,6.76,21.22.24,4.14,1.05,28.81,1.34,41-9.24,8.66-38.66,9.49-51,1.4C106.83,175.29,107.52,157.75,107.37,146.79Z" style="fill:#BA68C8"></path><path d="M82.61,176.45c.24-2.43.87-8.91,1.5-18.84.48-7.52,1.6-9.72,3.82-14.62,1.93-4.24,3.24-7.73,5.76-13.36,2.6-5.83,6.15-11.18,9.1-12.29a62.75,62.75,0,0,1,8.67-2.53c2.37,12.55-1.25,20.57-1.25,20.57L99.59,153.79S94.18,174,93.94,177.61c-.35,4.37,1.38,5.13,2.24,9.27.44,2.1.53,5.31,1.11,7.42.15.52.39,1.19-.21,1.49a1.32,1.32,0,0,1-1,0c-1.35-.39-2.16-1.93-2.71-3.23-.45-1.09-.38-2.1-.83-3.19-.17-.4-.71-.55-1,.74A17.24,17.24,0,0,0,91.3,193a32.35,32.35,0,0,0,.28,6c.1.73.39,1.92.45,2.66.1,1.09.35,3.76-1.3,3.86-.48,0-.8-.93-1-1.36a10.94,10.94,0,0,1-.44-1,1.51,1.51,0,0,1-1.07,0,4.12,4.12,0,0,1-1.5-1.67,1.73,1.73,0,0,1-1.36-.45A4.73,4.73,0,0,1,84,199.5a4.27,4.27,0,0,1-1-.49,6.1,6.1,0,0,1-2.3-4.35c-.35-2.29-.66-4.29-.81-5.92-.09-1,.58-2.8,1-4.41A42.82,42.82,0,0,0,82.61,176.45Z" style="fill:#ffa8a7"></path><path d="M112.78,113.81c-5.62,1.11-9.11,2-11.75,3.78s-4.2,4.23-7.51,10.78c-3.08,6.07-6.18,12.93-7.85,16.47s-2.09,4.72-2.58,13.55c-.36,6.43-.62,17.26-.62,17.26a10.79,10.79,0,0,1,6.89-1.36c4.08.51,5,2.44,5,2.44L99.92,154l10.75-16.75A32.47,32.47,0,0,0,112.78,113.81Z" style="fill:#455a64"></path><path d="M122.87,102.76c-1.6-4.05-5.44-7.64-8.77-13.67C109.35,80.46,111.78,71.83,118,71,119,64,126.28,59.74,136.12,60c11.71.28,20.64,8.43,16.62,21.52C151.52,82.76,123.59,102.74,122.87,102.76Z" style="fill:#263238"></path><path d="M122.23,89.73a.76.76,0,0,1-.21.19c-1.18.81-1.22-1.28-2.44-2.63a3.12,3.12,0,0,0-2.6-.94,4,4,0,0,0-3.66,2.41,5.84,5.84,0,0,0,3.72,7.5,4.72,4.72,0,0,0,5.07-1.17l.85,15.78s.67,1.51,4,3,7.19.74,11.09,4.62c1.78-5.31,4.19-4.39,2.3-9l-.11-3.26a20,20,0,0,0,6.12-1.07,11.77,11.77,0,0,0,7.34-9.45c.47-3-.53-5.66-.61-8.7-.05-1.81,0-4.66-.08-5.84-.1-1.44-1.35-6.89-3-8.8-3.3,4.66-13.09,6-21.28,2.93a8.49,8.49,0,0,1-1,6.77,10,10,0,0,1-5.07,3.36,7,7,0,0,1,0,3.4A2.25,2.25,0,0,1,122.23,89.73Z" style="fill:#ffa8a7"></path><path d="M136.29,81.76,132,83.68a2.44,2.44,0,0,1,1.21-3.17A2.27,2.27,0,0,1,136.29,81.76Z" style="fill:#263238"></path><path d="M138.45,95.81l3.25.74a1.74,1.74,0,0,1-2,1.28A1.63,1.63,0,0,1,138.45,95.81Z" style="fill:#b16668"></path><path d="M133.36,87.13A1.92,1.92,0,1,0,135.08,85,1.92,1.92,0,0,0,133.36,87.13Z" style="fill:#263238"></path><path d="M146.61,85.6a1.84,1.84,0,1,0,1.64-2A1.84,1.84,0,0,0,146.61,85.6Z" style="fill:#263238"></path><path d="M151,81.9l-4.56-1.2a2.26,2.26,0,0,1,2.8-1.71A2.47,2.47,0,0,1,151,81.9Z" style="fill:#263238"></path><polygon points="140.7 83.76 142.7 93.15 147.74 90.38 140.7 83.76" style="fill:#f28f8f"></polygon><path d="M140.26,106.15s-6.65-.37-11.56-3.12a11.45,11.45,0,0,1-4.37-5.29s.89,3.67,2.71,5.54c4.78,4.92,13.3,5.09,13.3,5.09Z" style="fill:#f28f8f"></path><path d="M139.37,121.33a.92.92,0,0,1-.89.93.91.91,0,1,1,.89-.93Z" style="fill:#455a64;opacity:0.2"></path><path d="M140.17,126.35a.91.91,0,0,1-1.81,0,.91.91,0,1,1,1.81,0Z" style="fill:#455a64;opacity:0.2"></path><path d="M140.92,131.6a.91.91,0,1,1-.93-.88A.9.9,0,0,1,140.92,131.6Z" style="fill:#455a64;opacity:0.2"></path><path d="M138.07,118.46c-3.07-2.32-4.47-2.79-6.06-1.67s-4.64,5.44-4.64,5.44a31,31,0,0,1-6.26-5.72c-2.29-3-2.17-4.25-2.17-4.25a12.72,12.72,0,0,0,2.35-3.2c.76-1.68.71-2.24,1.45-2.32l.1,1.79a18.46,18.46,0,0,0,5.62,4.82C131.51,114.79,134.66,114.31,138.07,118.46Z" style="fill:#455a64"></path><path d="M138.07,118.46c.58-2.56,1.44-3.57,1.82-4.82a8.88,8.88,0,0,0,.38-2.32l0-3.88a1.39,1.39,0,0,1,1.28.65c.56.76,2,2.26,2,2.26s2.86,5.33,2.39,9.12c-1.49-2.74-2.86-4.09-4.28-4.12C139.31,115.31,138.07,118.46,138.07,118.46Z" style="fill:#455a64"></path></g></g></g></svg>